<svg width="471" height="23" viewBox="0 0 471 23" fill="none" xmlns="http://www.w3.org/2000/svg">
<path d="M11.4272 17.84H0.147188V12.84H7.28719V11.76H2.18719L0.167188 10V3.54L2.58719 1.14H13.4072V5.82H6.30719V6.9H11.8272L13.8472 8.66V15.44L11.4272 17.84ZM25.3011 9.88H22.6411V12.66H25.3011V17.9H18.9811L16.3011 15.26V9.88H14.9211V4.74H16.3011V1.74H22.6411V4.74H25.3011V9.88ZM33.9488 4.6H39.9288V17.96H35.9888L34.8088 16.36L33.2688 17.96H29.2288L26.7088 15.32V4.6H32.6688V12.6H33.9488V4.6ZM53.3358 17.9H44.0958L41.4158 15.26V7.18L44.0958 4.54H53.3358V9.86H47.3558V12.46H53.3358V17.9ZM68.1742 4.54V9.8L66.4742 11.2L68.1742 12.62V17.9H62.1742V13.5H60.9742V17.9H54.8742V0.479999H60.9742V8.92H62.1742V4.54H68.1742ZM71.938 12.62V9.78L74.118 6.44V6.02H70.578V0.899999H77.538L79.698 3.3V6.52L77.018 11.24V12.62H71.938ZM71.818 13.54H77.098V17.76H71.818V13.54ZM95.4623 11.82H102.842V17.86H91.4423L88.6823 15.1V3.96L91.4423 1.16H102.642V7.3H95.4623V11.82ZM106.928 4.54H117.728V17.9H113.888L112.648 16.28L111.088 17.9H106.768L104.228 15.26V7.18L106.928 4.54ZM110.008 12.72H111.928V8.92H110.008V12.72ZM125.448 0.479999V17.86H119.288V0.479999H125.448ZM133.3 0.479999V17.86H127.14V0.479999H133.3ZM148.046 12.62H154.826V17.82H141.826V1.22H154.746V6.42H148.046V7.58H154.586V11.38H148.046V12.62ZM163.599 17.84H156.179V11.7H159.599V1.08H166.019V15.08L163.599 17.84ZM173.82 9.2H193.82V12.4H173.82V9.2ZM215.813 1.22V12.44L212.353 15.5V17.84H205.053V15.5L201.573 12.44V1.22H207.773V9.98H209.613V1.22H215.813ZM219.855 18L217.275 15.36V7.14L219.855 4.52H228.015L230.595 7.14V15.36L228.015 18H219.855ZM222.875 13.2H225.055V9.32H222.875V13.2ZM239.32 4.6H245.3V17.96H241.36L240.18 16.36L238.64 17.96H234.6L232.08 15.32V4.6H238.04V12.6H239.32V4.6ZM257.267 4.7V10.88H253.287V17.9H246.727V4.54H253.027V6.02L254.607 4.7H257.267ZM277.762 1.14L280.122 3.6V12.12L277.762 14.56H271.622V17.86H265.442V1.14H277.762ZM273.722 9.44V6.22H271.622V9.44H273.722ZM287.991 4.38H281.631V0.479999H287.991V4.38ZM287.991 17.9H281.631V5.38H287.991V17.9ZM300.26 4.54L302.94 7.18V15.26L300.26 17.9H295.6V22.24H289.64V4.54H300.26ZM297.18 13.16V9.1H295.34V13.16H297.18ZM317.905 12.6H310.385V13.56H317.825V17.9H306.665L304.385 15.54V7.28L307.065 4.54H315.625L317.905 6.9V12.6ZM312.445 8.78H310.025V9.96H312.445V8.78ZM340.737 3.32V9.2L339.197 10.7L340.737 12.22V17.84H334.377V13.54H332.437V17.86H326.477V1.14H338.897L340.737 3.32ZM332.197 8.42H334.697V5.84H332.197V8.42ZM355.756 12.6H348.236V13.56H355.676V17.9H344.516L342.236 15.54V7.28L344.916 4.54H353.476L355.756 6.9V12.6ZM350.296 8.78H347.876V9.96H350.296V8.78ZM367.536 17.9H357.296V14.26H362.996V13.22H358.636L357.196 11.84V6.6L359.056 4.54H369.036V7.74H363.316V8.78H367.956L369.396 10.16V15.84L367.536 17.9ZM382.75 17.9H373.51L370.83 15.26V7.18L373.51 4.54H382.75V9.86H376.77V12.46H382.75V17.9ZM391.468 4.6H397.448V17.96H393.508L392.328 16.36L390.788 17.96H386.748L384.228 15.32V4.6H390.188V12.6H391.468V4.6ZM412.455 12.6H404.935V13.56H412.375V17.9H401.215L398.935 15.54V7.28L401.615 4.54H410.175L412.455 6.9V12.6ZM406.995 8.78H404.575V9.96H406.995V8.78ZM433.348 1.14L435.708 3.6V12.12L433.348 14.56H427.208V17.86H421.028V1.14H433.348ZM429.308 9.44V6.22H427.208V9.44H429.308ZM447.677 4.7V10.88H443.697V17.9H437.137V4.54H443.437V6.02L445.017 4.7H447.677ZM451.34 18L448.76 15.36V7.14L451.34 4.52H459.5L462.08 7.14V15.36L459.5 18H451.34ZM454.36 13.2H456.54V9.32H454.36V13.2ZM464.344 0.859999H470.204V10L468.764 12.56H464.344V0.859999ZM464.464 13.54H469.744V17.76H464.464V13.54Z" fill="white"/>
</svg>
