<svg width="202" height="37" viewBox="0 0 202 37" fill="none" xmlns="http://www.w3.org/2000/svg">
<path d="M44.6251 13.63H36.1651V9.88H41.5201V9.07H37.6951L36.1801 7.75V2.905L37.9951 1.105H46.1101V4.615H40.7851V5.425H44.9251L46.4401 6.745V11.83L44.6251 13.63ZM55.0305 7.66H53.0355V9.745H55.0305V13.675H50.2905L48.2805 11.695V7.66H47.2455V3.805H48.2805V1.555H53.0355V3.805H55.0305V7.66ZM61.5163 3.7H66.0013V13.72H63.0463L62.1613 12.52L61.0063 13.72H57.9763L56.0863 11.74V3.7H60.5563V9.7H61.5163V3.7ZM76.0565 13.675H69.1265L67.1165 11.695V5.635L69.1265 3.655H76.0565V7.645H71.5715V9.595H76.0565V13.675ZM87.1854 3.655V7.6L85.9104 8.65L87.1854 9.715V13.675H82.6854V10.375H81.7854V13.675H77.2104V0.609999H81.7854V6.94H82.6854V3.655H87.1854ZM90.0082 9.715V7.585L91.6432 5.08V4.765H88.9882V0.924999H94.2082L95.8282 2.725V5.14L93.8182 8.68V9.715H90.0082ZM89.9182 10.405H93.8782V13.57H89.9182V10.405ZM107.651 9.115H113.186V13.645H104.636L102.566 11.575V3.22L104.636 1.12H113.036V5.725H107.651V9.115ZM116.251 3.655H124.351V13.675H121.471L120.541 12.46L119.371 13.675H116.131L114.226 11.695V5.635L116.251 3.655ZM118.561 9.79H120.001V6.94H118.561V9.79ZM130.141 0.609999V13.645H125.521V0.609999H130.141ZM136.03 0.609999V13.645H131.41V0.609999H136.03ZM147.089 9.715H152.174V13.615H142.424V1.165H152.114V5.065H147.089V5.935H151.994V8.785H147.089V9.715ZM158.754 13.63H153.189V9.025H155.754V1.06H160.569V11.56L158.754 13.63ZM10.6924 21.165V29.58L8.09738 31.875V33.63H2.62238V31.875L0.0123829 29.58V21.165H4.66238V27.735H6.04238V21.165H10.6924ZM13.7244 33.75L11.7894 31.77V25.605L13.7244 23.64H19.8444L21.7794 25.605V31.77L19.8444 33.75H13.7244ZM15.9894 30.15H17.6244V27.24H15.9894V30.15ZM28.3229 23.7H32.8079V33.72H29.8529L28.9679 32.52L27.8129 33.72H24.7829L22.8929 31.74V23.7H27.3629V29.7H28.3229V23.7ZM41.7832 23.775V28.41H38.7982V33.675H33.8782V23.655H38.6032V24.765L39.7882 23.775H41.7832ZM57.1542 21.105L58.9242 22.95V29.34L57.1542 31.17H52.5492V33.645H47.9142V21.105H57.1542ZM54.1242 27.33V24.915H52.5492V27.33H54.1242ZM64.8263 23.535H60.0563V20.61H64.8263V23.535ZM64.8263 33.675H60.0563V24.285H64.8263V33.675ZM74.0279 23.655L76.0379 25.635V31.695L74.0279 33.675H70.5329V36.93H66.0629V23.655H74.0279ZM71.7179 30.12V27.075H70.3379V30.12H71.7179ZM87.2614 29.7H81.6214V30.42H87.2014V33.675H78.8314L77.1214 31.905V25.71L79.1314 23.655H85.5514L87.2614 25.425V29.7ZM83.1664 26.835H81.3514V27.72H83.1664V26.835ZM104.386 22.74V27.15L103.231 28.275L104.386 29.415V33.63H99.6155V30.405H98.1605V33.645H93.6905V21.105H103.006L104.386 22.74ZM97.9805 26.565H99.8555V24.63H97.9805V26.565ZM115.65 29.7H110.01V30.42H115.59V33.675H107.22L105.51 31.905V25.71L107.52 23.655H113.94L115.65 25.425V29.7ZM111.555 26.835H109.74V27.72H111.555V26.835ZM124.485 33.675H116.805V30.945H121.08V30.165H117.81L116.73 29.13V25.2L118.125 23.655H125.61V26.055H121.32V26.835H124.8L125.88 27.87V32.13L124.485 33.675ZM135.895 33.675H128.965L126.955 31.695V25.635L128.965 23.655H135.895V27.645H131.41V29.595H135.895V33.675ZM142.434 23.7H146.919V33.72H143.964L143.079 32.52L141.924 33.72H138.894L137.004 31.74V23.7H141.474V29.7H142.434V23.7ZM158.174 29.7H152.534V30.42H158.114V33.675H149.744L148.034 31.905V25.71L150.044 23.655H156.464L158.174 25.425V29.7ZM154.079 26.835H152.264V27.72H154.079V26.835ZM173.844 21.105L175.614 22.95V29.34L173.844 31.17H169.239V33.645H164.604V21.105H173.844ZM170.814 27.33V24.915H169.239V27.33H170.814ZM184.591 23.775V28.41H181.606V33.675H176.686V23.655H181.411V24.765L182.596 23.775H184.591ZM187.338 33.75L185.403 31.77V25.605L187.338 23.64H193.458L195.393 25.605V31.77L193.458 33.75H187.338ZM189.603 30.15H191.238V27.24H189.603V30.15ZM197.091 20.895H201.486V27.75L200.406 29.67H197.091V20.895ZM197.181 30.405H201.141V33.57H197.181V30.405Z" fill="white"/>
</svg>
