<svg width="62" height="62" viewBox="0 0 62 62" fill="none" xmlns="http://www.w3.org/2000/svg">
<path d="M31 61.8195C48.021 61.8195 61.8194 48.0212 61.8194 31.0001C61.8194 13.979 48.021 0.180664 31 0.180664C13.9789 0.180664 0.180542 13.979 0.180542 31.0001C0.180542 48.0212 13.9789 61.8195 31 61.8195Z" fill="#F1C40F"/>
<path d="M30.9689 60.078C47.0206 60.078 60.033 47.0656 60.033 31.014C60.033 14.9624 47.0206 1.94995 30.9689 1.94995C14.9173 1.94995 1.90491 14.9624 1.90491 31.014C1.90491 47.0656 14.9173 60.078 30.9689 60.078Z" fill="#C0392B"/>
<path d="M55.8666 31.0118C55.8666 35.7752 54.5291 40.2251 52.2079 44.0079C47.8309 51.142 39.9598 55.9023 30.9761 55.9023C28.0467 55.9023 25.2353 55.3965 22.624 54.4655C16.6116 52.3243 11.6652 47.9365 8.79321 42.3135C7.06165 38.9218 6.08569 35.0801 6.08569 31.0103C6.08569 25.87 7.64349 21.0941 10.3138 17.1268C14.7839 10.4876 22.3695 6.11987 30.9761 6.11987C44.7231 6.12142 55.8666 17.2664 55.8666 31.0118Z" fill="#F1E8C6"/>
<path d="M11.8016 45.6943C10.0701 42.3025 9.09412 38.4608 9.09412 34.3926C9.09412 29.2522 10.6519 24.4749 13.3222 20.509C17.7923 13.8698 25.3779 9.50211 33.9845 9.50211C40.5725 9.50211 46.5585 12.0669 51.0116 16.2453C46.4794 10.1057 39.1948 6.1228 30.9776 6.1228C22.371 6.1228 14.7853 10.4905 10.3152 17.1297C7.64495 21.0955 6.08716 25.8728 6.08716 31.0132C6.08716 35.083 7.06309 38.9247 8.79466 42.3165C10.1088 44.8921 11.8761 47.19 13.9661 49.1512C13.1593 48.0573 12.4223 46.9107 11.8016 45.6943Z" fill="#C7BFA3"/>
<path d="M49.5484 32.889C49.5484 34.4359 32.6797 35.6896 31.1327 35.6896C29.5858 35.6896 28.3322 34.4359 28.3322 32.889C28.3322 31.3421 29.5858 30.0884 31.1327 30.0884C32.6797 30.0884 49.5484 31.3421 49.5484 32.889Z" fill="#C7BFA3"/>
<path d="M49.3933 31.012C49.3933 32.5589 32.5245 33.8126 30.9776 33.8126C29.4307 33.8126 28.177 32.5589 28.177 31.012C28.177 29.4651 29.4307 28.2114 30.9776 28.2114C32.5245 28.2114 49.3933 29.4666 49.3933 31.012Z" fill="#2C3E50"/>
<path d="M28.178 31.012C28.178 29.4651 29.4316 28.2114 30.9786 28.2114C32.5255 28.2114 49.3943 29.4651 49.3943 31.012H28.178Z" fill="#34495E"/>
<path d="M44.9605 31.3005L35.6603 31.9273C34.6642 31.9739 33.7798 31.5674 33.7798 31.0134C33.7798 30.4595 34.6657 30.053 35.6603 30.0996L44.9605 30.7264C45.052 30.7311 45.1249 30.8598 45.1249 31.0134C45.1249 31.167 45.052 31.2958 44.9605 31.3005Z" fill="#F1C40F"/>
<path d="M33.696 31.0122C33.696 32.5126 32.4795 33.729 30.9791 33.729C29.4788 33.729 28.2623 32.5126 28.2623 31.0122C28.2623 29.5118 29.4788 28.2954 30.9791 28.2954C32.4795 28.2954 33.696 29.5118 33.696 31.0122Z" fill="#507191"/>
<path d="M31.9364 31.0113C31.9364 31.5404 31.5067 31.9702 30.9776 31.9702C30.4485 31.9702 30.0187 31.5404 30.0187 31.0113C30.0187 30.4822 30.4485 30.0525 30.9776 30.0525C31.5082 30.0525 31.9364 30.4822 31.9364 31.0113Z" fill="#2C3E50"/>
<rect x="28.2379" y="46.739" width="0.644502" height="2.96471" fill="#555862"/>
<rect x="28.2379" y="46.739" width="0.644502" height="2.96471" fill="#555862"/>
<path d="M28.2379 6.63647H28.8824V9.60118H28.2379V6.63647Z" fill="#555862"/>
<path d="M28.2379 6.63647H28.8824V9.60118H28.2379V6.63647Z" fill="#555862"/>
<path d="M49.8215 28.1201L49.8215 28.7646L46.8568 28.7646L46.8568 28.1201L49.8215 28.1201Z" fill="#555862"/>
<path d="M49.8215 28.1201L49.8215 28.7646L46.8568 28.7646L46.8568 28.1201L49.8215 28.1201Z" fill="#555862"/>
<path d="M8.28699 28.1201L8.28699 28.7646L5.32228 28.7646L5.32228 28.1201L8.28699 28.1201Z" fill="#555862"/>
<path d="M8.28699 28.1201L8.28699 28.7646L5.32228 28.7646L5.32228 28.1201L8.28699 28.1201Z" fill="#555862"/>
</svg>
