<svg width="52" height="66" viewBox="0 0 52 66" fill="none" xmlns="http://www.w3.org/2000/svg">
<path d="M29.2838 7.57719C29.2838 9.04679 28.095 10.2368 26.6254 10.2368H25.2943C23.8272 10.2368 22.6372 9.04679 22.6372 7.57719L21.3074 2.65837C21.3074 1.19003 22.4974 0 23.9645 0H27.9514C29.4198 0 30.6124 1.19003 30.6124 2.65837L29.2838 7.57719Z" fill="#404040"/>
<path d="M51.921 64.1975C51.921 65.1935 50.9777 66 49.8154 66H2.10808C0.944489 66 0 65.1935 0 64.1975V8.79953C0 7.80457 0.944489 6.99805 2.10808 6.99805H49.8154C50.9777 6.99805 51.921 7.80457 51.921 8.79953V64.1975Z" fill="#AD7C5E"/>
<path d="M47.5222 10.0681H4.39496V61H47.5222V10.0681Z" fill="white"/>
<path d="M35.5904 11.3527C35.5904 12.3765 34.758 13.2102 33.7342 13.2102H18.1856C17.1605 13.2102 16.3294 12.3778 16.3294 11.3527V7.19829C16.3294 6.17322 17.1593 5.34082 18.1856 5.34082H33.7342C34.758 5.34082 35.5904 6.17322 35.5904 7.19829V11.3527Z" fill="#707070"/>
<path d="M42.7533 17.4788H25.3737V18.5026H42.7533V17.4788Z" fill="#BDC3C7"/>
<path d="M42.7533 20.0581H25.3737V21.0819H42.7533V20.0581Z" fill="#BDC3C7"/>
<path d="M12.7278 25.6027C11.0366 25.6027 9.66138 24.2263 9.66138 22.5376V13.8799H11.1436V22.5376C11.1436 23.4102 11.8539 24.1205 12.7278 24.1205C13.6005 24.1205 14.3107 23.4102 14.3107 22.5376L14.3095 22.2781C14.3095 21.0755 15.2829 20.1008 16.4818 20.1008H17.9501V21.583H16.4818C16.1015 21.583 15.7917 21.8928 15.7917 22.2743L15.7929 22.5338C15.7917 24.2275 14.4165 25.6027 12.7278 25.6027Z" fill="#909090"/>
<path d="M11.3035 14.9127H9.56691C9.36039 14.9127 9.19037 14.744 9.19037 14.5362V13.7806C9.19037 13.5741 9.36039 13.4041 9.56691 13.4041H11.3035C11.51 13.4041 11.68 13.5741 11.68 13.7806V14.5362C11.68 14.7452 11.51 14.9127 11.3035 14.9127Z" fill="#909090"/>
<path d="M10.0114 14.7856H9.97492C9.91448 14.7856 9.86536 14.7365 9.86536 14.676V13.6308C9.86536 13.5704 9.91448 13.5212 9.97492 13.5212H10.0114C10.0719 13.5212 10.121 13.5704 10.121 13.6308V14.676C10.121 14.7365 10.0719 14.7856 10.0114 14.7856Z" fill="#909090"/>
<path d="M9.58206 14.7856H9.54555C9.48637 14.7856 9.43726 14.7365 9.43726 14.676V13.6308C9.43726 13.5704 9.48637 13.5212 9.54555 13.5212H9.58206C9.64251 13.5212 9.69163 13.5704 9.69163 13.6308V14.676C9.69163 14.7365 9.64251 14.7856 9.58206 14.7856Z" fill="#909090"/>
<path d="M10.4408 14.7856H10.4043C10.3439 14.7856 10.2947 14.7365 10.2947 14.676V13.6308C10.2947 13.5704 10.3439 13.5212 10.4043 13.5212H10.4408C10.5013 13.5212 10.5504 13.5704 10.5504 13.6308V14.676C10.5504 14.7365 10.5013 14.7856 10.4408 14.7856Z" fill="#909090"/>
<path d="M10.869 14.7856H10.8325C10.7733 14.7856 10.7242 14.7365 10.7242 14.676V13.6308C10.7242 13.5704 10.7733 13.5212 10.8325 13.5212H10.869C10.9294 13.5212 10.9786 13.5704 10.9786 13.6308V14.676C10.9786 14.7365 10.9294 14.7856 10.869 14.7856Z" fill="#909090"/>
<path d="M11.2984 14.7856H11.2618C11.2014 14.7856 11.1523 14.7365 11.1523 14.676V13.6308C11.1523 13.5704 11.2014 13.5212 11.2618 13.5212H11.2984C11.3588 13.5212 11.4079 13.5704 11.4079 13.6308V14.676C11.4079 14.7365 11.3588 14.7856 11.2984 14.7856Z" fill="#909090"/>
<path d="M11.3928 20.4004H9.52154C9.35153 20.4004 9.21301 20.2619 9.21301 20.0919V19.6965C9.21301 19.5265 9.35153 19.3879 9.52154 19.3879H11.3928C11.5629 19.3879 11.7014 19.5265 11.7014 19.6965V20.0919C11.7014 20.2606 11.5629 20.4004 11.3928 20.4004Z" fill="#909090"/>
<path d="M10.0529 20.3138H9.97739C9.92828 20.3138 9.888 20.2748 9.888 20.2257V19.5545C9.888 19.5054 9.92828 19.4651 9.97739 19.4651H10.0529C10.1033 19.4651 10.1424 19.5054 10.1424 19.5545V20.2257C10.1436 20.2748 10.1046 20.3138 10.0529 20.3138Z" fill="#909090"/>
<path d="M9.62605 20.3138H9.54923C9.50012 20.3138 9.45984 20.2748 9.45984 20.2257V19.5545C9.45984 19.5054 9.50012 19.4651 9.54923 19.4651H9.62605C9.67516 19.4651 9.71548 19.5054 9.71548 19.5545V20.2257C9.71548 20.2748 9.67516 20.3138 9.62605 20.3138Z" fill="#909090"/>
<path d="M10.4824 20.3138H10.4056C10.3565 20.3138 10.3162 20.2748 10.3162 20.2257V19.5545C10.3162 19.5054 10.3565 19.4651 10.4056 19.4651H10.4824C10.5315 19.4651 10.5719 19.5054 10.5719 19.5545V20.2257C10.5731 20.2748 10.5315 20.3138 10.4824 20.3138Z" fill="#909090"/>
<path d="M10.9118 20.3138H10.8349C10.7858 20.3138 10.7455 20.2748 10.7455 20.2257V19.5545C10.7455 19.5054 10.7858 19.4651 10.8349 19.4651H10.9118C10.9609 19.4651 11.0012 19.5054 11.0012 19.5545V20.2257C11.0012 20.2748 10.9609 20.3138 10.9118 20.3138Z" fill="#909090"/>
<path d="M11.3399 20.3138H11.2631C11.214 20.3138 11.1737 20.2748 11.1737 20.2257V19.5545C11.1737 19.5054 11.214 19.4651 11.2631 19.4651H11.3399C11.389 19.4651 11.4293 19.5054 11.4293 19.5545V20.2257C11.4293 20.2748 11.389 20.3138 11.3399 20.3138Z" fill="#909090"/>
<path d="M17.2259 21.7054V19.9688C17.2259 19.7623 17.3959 19.5923 17.6024 19.5923H18.3593C18.5658 19.5923 18.7358 19.7623 18.7358 19.9688V21.7054C18.7358 21.9119 18.5658 22.0819 18.3593 22.0819H17.6024C17.3959 22.0819 17.2259 21.9119 17.2259 21.7054Z" fill="#909090"/>
<path d="M17.3531 20.4149V20.3784C17.3531 20.3179 17.4022 20.2688 17.4627 20.2688H18.5079C18.5683 20.2688 18.6175 20.3179 18.6175 20.3784V20.4149C18.6175 20.4753 18.5683 20.5244 18.5079 20.5244H17.4627C17.4022 20.5232 17.3531 20.4741 17.3531 20.4149Z" fill="#909090"/>
<path d="M17.3531 19.9867V19.9501C17.3531 19.8897 17.4022 19.8406 17.4627 19.8406H18.5079C18.5683 19.8406 18.6175 19.8897 18.6175 19.9501V19.9867C18.6175 20.0471 18.5683 20.0962 18.5079 20.0962H17.4627C17.4022 20.095 17.3531 20.0458 17.3531 19.9867Z" fill="#909090"/>
<path d="M17.3531 20.8429V20.8063C17.3531 20.7459 17.4022 20.6968 17.4627 20.6968H18.5079C18.5683 20.6968 18.6175 20.7459 18.6175 20.8063V20.8429C18.6175 20.9033 18.5683 20.9524 18.5079 20.9524H17.4627C17.4022 20.9524 17.3531 20.9033 17.3531 20.8429Z" fill="#909090"/>
<path d="M17.3531 21.2721V21.2355C17.3531 21.1751 17.4022 21.126 17.4627 21.126H18.5079C18.5683 21.126 18.6175 21.1751 18.6175 21.2355V21.2721C18.6175 21.3325 18.5683 21.3816 18.5079 21.3816H17.4627C17.4022 21.3816 17.3531 21.3325 17.3531 21.2721Z" fill="#909090"/>
<path d="M17.3531 21.7005V21.664C17.3531 21.6036 17.4022 21.5544 17.4627 21.5544H18.5079C18.5683 21.5544 18.6175 21.6036 18.6175 21.664V21.7005C18.6175 21.761 18.5683 21.8101 18.5079 21.8101H17.4627C17.4022 21.8101 17.3531 21.761 17.3531 21.7005Z" fill="#909090"/>
<path d="M19.1981 15.7209H12.7996V17.1187H19.1981V15.7209Z" fill="#404040"/>
<path d="M19.1981 17.6377H12.7996V18.3366H19.1981V17.6377Z" fill="#404040"/>
</svg>
