<svg width="290" height="290" viewBox="0 0 290 290" fill="none" xmlns="http://www.w3.org/2000/svg">
<rect x="20" y="20" width="250" height="250" fill="black"/>
<rect x="10" y="10" width="270" height="270" stroke="black" stroke-opacity="0.8" stroke-width="20"/>
<path d="M25.5556 20H20V25.5556H25.5556V20Z" fill="white"/>
<path d="M31.1111 20H25.5555V25.5556H31.1111V20Z" fill="white"/>
<path d="M36.6666 20H31.1111V25.5556H36.6666V20Z" fill="white"/>
<path d="M42.2222 20H36.6667V25.5556H42.2222V20Z" fill="white"/>
<path d="M47.7778 20H42.2222V25.5556H47.7778V20Z" fill="white"/>
<path d="M53.3333 20H47.7778V25.5556H53.3333V20Z" fill="white"/>
<path d="M58.8889 20H53.3333V25.5556H58.8889V20Z" fill="white"/>
<path d="M70 20H64.4445V25.5556H70V20Z" fill="white"/>
<path d="M81.1111 20H75.5555V25.5556H81.1111V20Z" fill="white"/>
<path d="M86.6666 20H81.1111V25.5556H86.6666V20Z" fill="white"/>
<path d="M97.7778 20H92.2222V25.5556H97.7778V20Z" fill="white"/>
<path d="M108.889 20H103.333V25.5556H108.889V20Z" fill="white"/>
<path d="M114.444 20H108.889V25.5556H114.444V20Z" fill="white"/>
<path d="M131.111 20H125.556V25.5556H131.111V20Z" fill="white"/>
<path d="M136.667 20H131.111V25.5556H136.667V20Z" fill="white"/>
<path d="M147.778 20H142.222V25.5556H147.778V20Z" fill="white"/>
<path d="M153.333 20H147.778V25.5556H153.333V20Z" fill="white"/>
<path d="M170 20H164.444V25.5556H170V20Z" fill="white"/>
<path d="M186.667 20H181.111V25.5556H186.667V20Z" fill="white"/>
<path d="M192.222 20H186.667V25.5556H192.222V20Z" fill="white"/>
<path d="M225.556 20H220V25.5556H225.556V20Z" fill="white"/>
<path d="M236.667 20H231.111V25.5556H236.667V20Z" fill="white"/>
<path d="M242.222 20H236.667V25.5556H242.222V20Z" fill="white"/>
<path d="M247.778 20H242.222V25.5556H247.778V20Z" fill="white"/>
<path d="M253.333 20H247.778V25.5556H253.333V20Z" fill="white"/>
<path d="M258.889 20H253.333V25.5556H258.889V20Z" fill="white"/>
<path d="M264.444 20H258.889V25.5556H264.444V20Z" fill="white"/>
<path d="M270 20H264.444V25.5556H270V20Z" fill="white"/>
<path d="M25.5556 25.5555H20V31.1111H25.5556V25.5555Z" fill="white"/>
<path d="M58.8889 25.5555H53.3333V31.1111H58.8889V25.5555Z" fill="white"/>
<path d="M81.1111 25.5555H75.5555V31.1111H81.1111V25.5555Z" fill="white"/>
<path d="M97.7778 25.5555H92.2222V31.1111H97.7778V25.5555Z" fill="white"/>
<path d="M103.333 25.5555H97.7778V31.1111H103.333V25.5555Z" fill="white"/>
<path d="M114.444 25.5555H108.889V31.1111H114.444V25.5555Z" fill="white"/>
<path d="M125.556 25.5555H120V31.1111H125.556V25.5555Z" fill="white"/>
<path d="M131.111 25.5555H125.556V31.1111H131.111V25.5555Z" fill="white"/>
<path d="M136.667 25.5555H131.111V31.1111H136.667V25.5555Z" fill="white"/>
<path d="M142.222 25.5555H136.667V31.1111H142.222V25.5555Z" fill="white"/>
<path d="M153.333 25.5555H147.778V31.1111H153.333V25.5555Z" fill="white"/>
<path d="M158.889 25.5555H153.333V31.1111H158.889V25.5555Z" fill="white"/>
<path d="M175.556 25.5555H170V31.1111H175.556V25.5555Z" fill="white"/>
<path d="M220 25.5555H214.444V31.1111H220V25.5555Z" fill="white"/>
<path d="M236.667 25.5555H231.111V31.1111H236.667V25.5555Z" fill="white"/>
<path d="M270 25.5555H264.444V31.1111H270V25.5555Z" fill="white"/>
<path d="M25.5556 31.1111H20V36.6666H25.5556V31.1111Z" fill="white"/>
<path d="M36.6666 31.1111H31.1111V36.6666H36.6666V31.1111Z" fill="white"/>
<path d="M42.2222 31.1111H36.6667V36.6666H42.2222V31.1111Z" fill="white"/>
<path d="M47.7778 31.1111H42.2222V36.6666H47.7778V31.1111Z" fill="white"/>
<path d="M58.8889 31.1111H53.3333V36.6666H58.8889V31.1111Z" fill="white"/>
<path d="M92.2222 31.1111H86.6667V36.6666H92.2222V31.1111Z" fill="white"/>
<path d="M103.333 31.1111H97.7778V36.6666H103.333V31.1111Z" fill="white"/>
<path d="M108.889 31.1111H103.333V36.6666H108.889V31.1111Z" fill="white"/>
<path d="M114.444 31.1111H108.889V36.6666H114.444V31.1111Z" fill="white"/>
<path d="M142.222 31.1111H136.667V36.6666H142.222V31.1111Z" fill="white"/>
<path d="M147.778 31.1111H142.222V36.6666H147.778V31.1111Z" fill="white"/>
<path d="M164.444 31.1111H158.889V36.6666H164.444V31.1111Z" fill="white"/>
<path d="M175.556 31.1111H170V36.6666H175.556V31.1111Z" fill="white"/>
<path d="M186.667 31.1111H181.111V36.6666H186.667V31.1111Z" fill="white"/>
<path d="M192.222 31.1111H186.667V36.6666H192.222V31.1111Z" fill="white"/>
<path d="M197.778 31.1111H192.222V36.6666H197.778V31.1111Z" fill="white"/>
<path d="M203.333 31.1111H197.778V36.6666H203.333V31.1111Z" fill="white"/>
<path d="M208.889 31.1111H203.333V36.6666H208.889V31.1111Z" fill="white"/>
<path d="M220 31.1111H214.444V36.6666H220V31.1111Z" fill="white"/>
<path d="M236.667 31.1111H231.111V36.6666H236.667V31.1111Z" fill="white"/>
<path d="M247.778 31.1111H242.222V36.6666H247.778V31.1111Z" fill="white"/>
<path d="M253.333 31.1111H247.778V36.6666H253.333V31.1111Z" fill="white"/>
<path d="M258.889 31.1111H253.333V36.6666H258.889V31.1111Z" fill="white"/>
<path d="M270 31.1111H264.444V36.6666H270V31.1111Z" fill="white"/>
<path d="M25.5556 36.6667H20V42.2222H25.5556V36.6667Z" fill="white"/>
<path d="M36.6666 36.6667H31.1111V42.2222H36.6666V36.6667Z" fill="white"/>
<path d="M42.2222 36.6667H36.6667V42.2222H42.2222V36.6667Z" fill="white"/>
<path d="M47.7778 36.6667H42.2222V42.2222H47.7778V36.6667Z" fill="white"/>
<path d="M58.8889 36.6667H53.3333V42.2222H58.8889V36.6667Z" fill="white"/>
<path d="M70 36.6667H64.4445V42.2222H70V36.6667Z" fill="white"/>
<path d="M81.1111 36.6667H75.5555V42.2222H81.1111V36.6667Z" fill="white"/>
<path d="M103.333 36.6667H97.7778V42.2222H103.333V36.6667Z" fill="white"/>
<path d="M131.111 36.6667H125.556V42.2222H131.111V36.6667Z" fill="white"/>
<path d="M136.667 36.6667H131.111V42.2222H136.667V36.6667Z" fill="white"/>
<path d="M142.222 36.6667H136.667V42.2222H142.222V36.6667Z" fill="white"/>
<path d="M170 36.6667H164.444V42.2222H170V36.6667Z" fill="white"/>
<path d="M175.556 36.6667H170V42.2222H175.556V36.6667Z" fill="white"/>
<path d="M181.111 36.6667H175.556V42.2222H181.111V36.6667Z" fill="white"/>
<path d="M220 36.6667H214.444V42.2222H220V36.6667Z" fill="white"/>
<path d="M225.556 36.6667H220V42.2222H225.556V36.6667Z" fill="white"/>
<path d="M236.667 36.6667H231.111V42.2222H236.667V36.6667Z" fill="white"/>
<path d="M247.778 36.6667H242.222V42.2222H247.778V36.6667Z" fill="white"/>
<path d="M253.333 36.6667H247.778V42.2222H253.333V36.6667Z" fill="white"/>
<path d="M258.889 36.6667H253.333V42.2222H258.889V36.6667Z" fill="white"/>
<path d="M270 36.6667H264.444V42.2222H270V36.6667Z" fill="white"/>
<path d="M25.5556 42.2222H20V47.7778H25.5556V42.2222Z" fill="white"/>
<path d="M36.6666 42.2222H31.1111V47.7778H36.6666V42.2222Z" fill="white"/>
<path d="M42.2222 42.2222H36.6667V47.7778H42.2222V42.2222Z" fill="white"/>
<path d="M47.7778 42.2222H42.2222V47.7778H47.7778V42.2222Z" fill="white"/>
<path d="M58.8889 42.2222H53.3333V47.7778H58.8889V42.2222Z" fill="white"/>
<path d="M70 42.2222H64.4445V47.7778H70V42.2222Z" fill="white"/>
<path d="M97.7778 42.2222H92.2222V47.7778H97.7778V42.2222Z" fill="white"/>
<path d="M108.889 42.2222H103.333V47.7778H108.889V42.2222Z" fill="white"/>
<path d="M125.556 42.2222H120V47.7778H125.556V42.2222Z" fill="white"/>
<path d="M131.111 42.2222H125.556V47.7778H131.111V42.2222Z" fill="white"/>
<path d="M136.667 42.2222H131.111V47.7778H136.667V42.2222Z" fill="white"/>
<path d="M142.222 42.2222H136.667V47.7778H142.222V42.2222Z" fill="white"/>
<path d="M147.778 42.2222H142.222V47.7778H147.778V42.2222Z" fill="white"/>
<path d="M153.333 42.2222H147.778V47.7778H153.333V42.2222Z" fill="white"/>
<path d="M158.889 42.2222H153.333V47.7778H158.889V42.2222Z" fill="white"/>
<path d="M170 42.2222H164.444V47.7778H170V42.2222Z" fill="white"/>
<path d="M175.556 42.2222H170V47.7778H175.556V42.2222Z" fill="white"/>
<path d="M186.667 42.2222H181.111V47.7778H186.667V42.2222Z" fill="white"/>
<path d="M192.222 42.2222H186.667V47.7778H192.222V42.2222Z" fill="white"/>
<path d="M197.778 42.2222H192.222V47.7778H197.778V42.2222Z" fill="white"/>
<path d="M214.444 42.2222H208.889V47.7778H214.444V42.2222Z" fill="white"/>
<path d="M220 42.2222H214.444V47.7778H220V42.2222Z" fill="white"/>
<path d="M225.556 42.2222H220V47.7778H225.556V42.2222Z" fill="white"/>
<path d="M236.667 42.2222H231.111V47.7778H236.667V42.2222Z" fill="white"/>
<path d="M247.778 42.2222H242.222V47.7778H247.778V42.2222Z" fill="white"/>
<path d="M253.333 42.2222H247.778V47.7778H253.333V42.2222Z" fill="white"/>
<path d="M258.889 42.2222H253.333V47.7778H258.889V42.2222Z" fill="white"/>
<path d="M270 42.2222H264.444V47.7778H270V42.2222Z" fill="white"/>
<path d="M25.5556 47.7778H20V53.3333H25.5556V47.7778Z" fill="white"/>
<path d="M58.8889 47.7778H53.3333V53.3333H58.8889V47.7778Z" fill="white"/>
<path d="M70 47.7778H64.4445V53.3333H70V47.7778Z" fill="white"/>
<path d="M81.1111 47.7778H75.5555V53.3333H81.1111V47.7778Z" fill="white"/>
<path d="M86.6666 47.7778H81.1111V53.3333H86.6666V47.7778Z" fill="white"/>
<path d="M103.333 47.7778H97.7778V53.3333H103.333V47.7778Z" fill="white"/>
<path d="M114.444 47.7778H108.889V53.3333H114.444V47.7778Z" fill="white"/>
<path d="M125.556 47.7778H120V53.3333H125.556V47.7778Z" fill="white"/>
<path d="M131.111 47.7778H125.556V53.3333H131.111V47.7778Z" fill="white"/>
<path d="M136.667 47.7778H131.111V53.3333H136.667V47.7778Z" fill="white"/>
<path d="M158.889 47.7778H153.333V53.3333H158.889V47.7778Z" fill="white"/>
<path d="M164.444 47.7778H158.889V53.3333H164.444V47.7778Z" fill="white"/>
<path d="M170 47.7778H164.444V53.3333H170V47.7778Z" fill="white"/>
<path d="M175.556 47.7778H170V53.3333H175.556V47.7778Z" fill="white"/>
<path d="M197.778 47.7778H192.222V53.3333H197.778V47.7778Z" fill="white"/>
<path d="M236.667 47.7778H231.111V53.3333H236.667V47.7778Z" fill="white"/>
<path d="M270 47.7778H264.444V53.3333H270V47.7778Z" fill="white"/>
<path d="M25.5556 53.3333H20V58.8889H25.5556V53.3333Z" fill="white"/>
<path d="M31.1111 53.3333H25.5555V58.8889H31.1111V53.3333Z" fill="white"/>
<path d="M36.6666 53.3333H31.1111V58.8889H36.6666V53.3333Z" fill="white"/>
<path d="M42.2222 53.3333H36.6667V58.8889H42.2222V53.3333Z" fill="white"/>
<path d="M47.7778 53.3333H42.2222V58.8889H47.7778V53.3333Z" fill="white"/>
<path d="M53.3333 53.3333H47.7778V58.8889H53.3333V53.3333Z" fill="white"/>
<path d="M58.8889 53.3333H53.3333V58.8889H58.8889V53.3333Z" fill="white"/>
<path d="M70 53.3333H64.4445V58.8889H70V53.3333Z" fill="white"/>
<path d="M81.1111 53.3333H75.5555V58.8889H81.1111V53.3333Z" fill="white"/>
<path d="M92.2222 53.3333H86.6667V58.8889H92.2222V53.3333Z" fill="white"/>
<path d="M103.333 53.3333H97.7778V58.8889H103.333V53.3333Z" fill="white"/>
<path d="M114.444 53.3333H108.889V58.8889H114.444V53.3333Z" fill="white"/>
<path d="M125.556 53.3333H120V58.8889H125.556V53.3333Z" fill="white"/>
<path d="M136.667 53.3333H131.111V58.8889H136.667V53.3333Z" fill="white"/>
<path d="M147.778 53.3333H142.222V58.8889H147.778V53.3333Z" fill="white"/>
<path d="M158.889 53.3333H153.333V58.8889H158.889V53.3333Z" fill="white"/>
<path d="M170 53.3333H164.444V58.8889H170V53.3333Z" fill="white"/>
<path d="M181.111 53.3333H175.556V58.8889H181.111V53.3333Z" fill="white"/>
<path d="M192.222 53.3333H186.667V58.8889H192.222V53.3333Z" fill="white"/>
<path d="M203.333 53.3333H197.778V58.8889H203.333V53.3333Z" fill="white"/>
<path d="M214.444 53.3333H208.889V58.8889H214.444V53.3333Z" fill="white"/>
<path d="M225.556 53.3333H220V58.8889H225.556V53.3333Z" fill="white"/>
<path d="M236.667 53.3333H231.111V58.8889H236.667V53.3333Z" fill="white"/>
<path d="M242.222 53.3333H236.667V58.8889H242.222V53.3333Z" fill="white"/>
<path d="M247.778 53.3333H242.222V58.8889H247.778V53.3333Z" fill="white"/>
<path d="M253.333 53.3333H247.778V58.8889H253.333V53.3333Z" fill="white"/>
<path d="M258.889 53.3333H253.333V58.8889H258.889V53.3333Z" fill="white"/>
<path d="M264.444 53.3333H258.889V58.8889H264.444V53.3333Z" fill="white"/>
<path d="M270 53.3333H264.444V58.8889H270V53.3333Z" fill="white"/>
<path d="M70 58.8889H64.4445V64.4445H70V58.8889Z" fill="white"/>
<path d="M75.5556 58.8889H70V64.4445H75.5556V58.8889Z" fill="white"/>
<path d="M81.1111 58.8889H75.5555V64.4445H81.1111V58.8889Z" fill="white"/>
<path d="M92.2222 58.8889H86.6667V64.4445H92.2222V58.8889Z" fill="white"/>
<path d="M97.7778 58.8889H92.2222V64.4445H97.7778V58.8889Z" fill="white"/>
<path d="M131.111 58.8889H125.556V64.4445H131.111V58.8889Z" fill="white"/>
<path d="M136.667 58.8889H131.111V64.4445H136.667V58.8889Z" fill="white"/>
<path d="M158.889 58.8889H153.333V64.4445H158.889V58.8889Z" fill="white"/>
<path d="M175.556 58.8889H170V64.4445H175.556V58.8889Z" fill="white"/>
<path d="M192.222 58.8889H186.667V64.4445H192.222V58.8889Z" fill="white"/>
<path d="M197.778 58.8889H192.222V64.4445H197.778V58.8889Z" fill="white"/>
<path d="M203.333 58.8889H197.778V64.4445H203.333V58.8889Z" fill="white"/>
<path d="M214.444 58.8889H208.889V64.4445H214.444V58.8889Z" fill="white"/>
<path d="M220 58.8889H214.444V64.4445H220V58.8889Z" fill="white"/>
<path d="M225.556 58.8889H220V64.4445H225.556V58.8889Z" fill="white"/>
<path d="M25.5556 64.4445H20V70H25.5556V64.4445Z" fill="white"/>
<path d="M47.7778 64.4445H42.2222V70H47.7778V64.4445Z" fill="white"/>
<path d="M58.8889 64.4445H53.3333V70H58.8889V64.4445Z" fill="white"/>
<path d="M64.4445 64.4445H58.8889V70H64.4445V64.4445Z" fill="white"/>
<path d="M70 64.4445H64.4445V70H70V64.4445Z" fill="white"/>
<path d="M92.2222 64.4445H86.6667V70H92.2222V64.4445Z" fill="white"/>
<path d="M103.333 64.4445H97.7778V70H103.333V64.4445Z" fill="white"/>
<path d="M125.556 64.4445H120V70H125.556V64.4445Z" fill="white"/>
<path d="M131.111 64.4445H125.556V70H131.111V64.4445Z" fill="white"/>
<path d="M136.667 64.4445H131.111V70H136.667V64.4445Z" fill="white"/>
<path d="M142.222 64.4445H136.667V70H142.222V64.4445Z" fill="white"/>
<path d="M147.778 64.4445H142.222V70H147.778V64.4445Z" fill="white"/>
<path d="M153.333 64.4445H147.778V70H153.333V64.4445Z" fill="white"/>
<path d="M158.889 64.4445H153.333V70H158.889V64.4445Z" fill="white"/>
<path d="M175.556 64.4445H170V70H175.556V64.4445Z" fill="white"/>
<path d="M186.667 64.4445H181.111V70H186.667V64.4445Z" fill="white"/>
<path d="M192.222 64.4445H186.667V70H192.222V64.4445Z" fill="white"/>
<path d="M197.778 64.4445H192.222V70H197.778V64.4445Z" fill="white"/>
<path d="M203.333 64.4445H197.778V70H203.333V64.4445Z" fill="white"/>
<path d="M208.889 64.4445H203.333V70H208.889V64.4445Z" fill="white"/>
<path d="M214.444 64.4445H208.889V70H214.444V64.4445Z" fill="white"/>
<path d="M231.111 64.4445H225.556V70H231.111V64.4445Z" fill="white"/>
<path d="M236.667 64.4445H231.111V70H236.667V64.4445Z" fill="white"/>
<path d="M242.222 64.4445H236.667V70H242.222V64.4445Z" fill="white"/>
<path d="M247.778 64.4445H242.222V70H247.778V64.4445Z" fill="white"/>
<path d="M253.333 64.4445H247.778V70H253.333V64.4445Z" fill="white"/>
<path d="M270 64.4445H264.444V70H270V64.4445Z" fill="white"/>
<path d="M42.2222 70H36.6667V75.5556H42.2222V70Z" fill="white"/>
<path d="M47.7778 70H42.2222V75.5556H47.7778V70Z" fill="white"/>
<path d="M53.3333 70H47.7778V75.5556H53.3333V70Z" fill="white"/>
<path d="M86.6666 70H81.1111V75.5556H86.6666V70Z" fill="white"/>
<path d="M114.444 70H108.889V75.5556H114.444V70Z" fill="white"/>
<path d="M120 70H114.444V75.5556H120V70Z" fill="white"/>
<path d="M125.556 70H120V75.5556H125.556V70Z" fill="white"/>
<path d="M131.111 70H125.556V75.5556H131.111V70Z" fill="white"/>
<path d="M136.667 70H131.111V75.5556H136.667V70Z" fill="white"/>
<path d="M142.222 70H136.667V75.5556H142.222V70Z" fill="white"/>
<path d="M153.333 70H147.778V75.5556H153.333V70Z" fill="white"/>
<path d="M170 70H164.444V75.5556H170V70Z" fill="white"/>
<path d="M181.111 70H175.556V75.5556H181.111V70Z" fill="white"/>
<path d="M186.667 70H181.111V75.5556H186.667V70Z" fill="white"/>
<path d="M192.222 70H186.667V75.5556H192.222V70Z" fill="white"/>
<path d="M203.333 70H197.778V75.5556H203.333V70Z" fill="white"/>
<path d="M208.889 70H203.333V75.5556H208.889V70Z" fill="white"/>
<path d="M220 70H214.444V75.5556H220V70Z" fill="white"/>
<path d="M225.556 70H220V75.5556H225.556V70Z" fill="white"/>
<path d="M231.111 70H225.556V75.5556H231.111V70Z" fill="white"/>
<path d="M236.667 70H231.111V75.5556H236.667V70Z" fill="white"/>
<path d="M242.222 70H236.667V75.5556H242.222V70Z" fill="white"/>
<path d="M247.778 70H242.222V75.5556H247.778V70Z" fill="white"/>
<path d="M253.333 70H247.778V75.5556H253.333V70Z" fill="white"/>
<path d="M258.889 70H253.333V75.5556H258.889V70Z" fill="white"/>
<path d="M25.5556 75.5555H20V81.1111H25.5556V75.5555Z" fill="white"/>
<path d="M36.6666 75.5555H31.1111V81.1111H36.6666V75.5555Z" fill="white"/>
<path d="M42.2222 75.5555H36.6667V81.1111H42.2222V75.5555Z" fill="white"/>
<path d="M47.7778 75.5555H42.2222V81.1111H47.7778V75.5555Z" fill="white"/>
<path d="M53.3333 75.5555H47.7778V81.1111H53.3333V75.5555Z" fill="white"/>
<path d="M58.8889 75.5555H53.3333V81.1111H58.8889V75.5555Z" fill="white"/>
<path d="M64.4445 75.5555H58.8889V81.1111H64.4445V75.5555Z" fill="white"/>
<path d="M70 75.5555H64.4445V81.1111H70V75.5555Z" fill="white"/>
<path d="M75.5556 75.5555H70V81.1111H75.5556V75.5555Z" fill="white"/>
<path d="M81.1111 75.5555H75.5555V81.1111H81.1111V75.5555Z" fill="white"/>
<path d="M86.6666 75.5555H81.1111V81.1111H86.6666V75.5555Z" fill="white"/>
<path d="M97.7778 75.5555H92.2222V81.1111H97.7778V75.5555Z" fill="white"/>
<path d="M103.333 75.5555H97.7778V81.1111H103.333V75.5555Z" fill="white"/>
<path d="M125.556 75.5555H120V81.1111H125.556V75.5555Z" fill="white"/>
<path d="M147.778 75.5555H142.222V81.1111H147.778V75.5555Z" fill="white"/>
<path d="M170 75.5555H164.444V81.1111H170V75.5555Z" fill="white"/>
<path d="M186.667 75.5555H181.111V81.1111H186.667V75.5555Z" fill="white"/>
<path d="M220 75.5555H214.444V81.1111H220V75.5555Z" fill="white"/>
<path d="M225.556 75.5555H220V81.1111H225.556V75.5555Z" fill="white"/>
<path d="M231.111 75.5555H225.556V81.1111H231.111V75.5555Z" fill="white"/>
<path d="M236.667 75.5555H231.111V81.1111H236.667V75.5555Z" fill="white"/>
<path d="M242.222 75.5555H236.667V81.1111H242.222V75.5555Z" fill="white"/>
<path d="M247.778 75.5555H242.222V81.1111H247.778V75.5555Z" fill="white"/>
<path d="M253.333 75.5555H247.778V81.1111H253.333V75.5555Z" fill="white"/>
<path d="M264.444 75.5555H258.889V81.1111H264.444V75.5555Z" fill="white"/>
<path d="M25.5556 81.1111H20V86.6666H25.5556V81.1111Z" fill="white"/>
<path d="M75.5556 81.1111H70V86.6666H75.5556V81.1111Z" fill="white"/>
<path d="M86.6666 81.1111H81.1111V86.6666H86.6666V81.1111Z" fill="white"/>
<path d="M103.333 81.1111H97.7778V86.6666H103.333V81.1111Z" fill="white"/>
<path d="M114.444 81.1111H108.889V86.6666H114.444V81.1111Z" fill="white"/>
<path d="M131.111 81.1111H125.556V86.6666H131.111V81.1111Z" fill="white"/>
<path d="M136.667 81.1111H131.111V86.6666H136.667V81.1111Z" fill="white"/>
<path d="M147.778 81.1111H142.222V86.6666H147.778V81.1111Z" fill="white"/>
<path d="M158.889 81.1111H153.333V86.6666H158.889V81.1111Z" fill="white"/>
<path d="M164.444 81.1111H158.889V86.6666H164.444V81.1111Z" fill="white"/>
<path d="M175.556 81.1111H170V86.6666H175.556V81.1111Z" fill="white"/>
<path d="M181.111 81.1111H175.556V86.6666H181.111V81.1111Z" fill="white"/>
<path d="M203.333 81.1111H197.778V86.6666H203.333V81.1111Z" fill="white"/>
<path d="M214.444 81.1111H208.889V86.6666H214.444V81.1111Z" fill="white"/>
<path d="M25.5556 86.6667H20V92.2222H25.5556V86.6667Z" fill="white"/>
<path d="M31.1111 86.6667H25.5555V92.2222H31.1111V86.6667Z" fill="white"/>
<path d="M36.6666 86.6667H31.1111V92.2222H36.6666V86.6667Z" fill="white"/>
<path d="M47.7778 86.6667H42.2222V92.2222H47.7778V86.6667Z" fill="white"/>
<path d="M58.8889 86.6667H53.3333V92.2222H58.8889V86.6667Z" fill="white"/>
<path d="M81.1111 86.6667H75.5555V92.2222H81.1111V86.6667Z" fill="white"/>
<path d="M97.7778 86.6667H92.2222V92.2222H97.7778V86.6667Z" fill="white"/>
<path d="M103.333 86.6667H97.7778V92.2222H103.333V86.6667Z" fill="white"/>
<path d="M108.889 86.6667H103.333V92.2222H108.889V86.6667Z" fill="white"/>
<path d="M120 86.6667H114.444V92.2222H120V86.6667Z" fill="white"/>
<path d="M125.556 86.6667H120V92.2222H125.556V86.6667Z" fill="white"/>
<path d="M131.111 86.6667H125.556V92.2222H131.111V86.6667Z" fill="white"/>
<path d="M142.222 86.6667H136.667V92.2222H142.222V86.6667Z" fill="white"/>
<path d="M147.778 86.6667H142.222V92.2222H147.778V86.6667Z" fill="white"/>
<path d="M153.333 86.6667H147.778V92.2222H153.333V86.6667Z" fill="white"/>
<path d="M170 86.6667H164.444V92.2222H170V86.6667Z" fill="white"/>
<path d="M175.556 86.6667H170V92.2222H175.556V86.6667Z" fill="white"/>
<path d="M203.333 86.6667H197.778V92.2222H203.333V86.6667Z" fill="white"/>
<path d="M214.444 86.6667H208.889V92.2222H214.444V86.6667Z" fill="white"/>
<path d="M225.556 86.6667H220V92.2222H225.556V86.6667Z" fill="white"/>
<path d="M242.222 86.6667H236.667V92.2222H242.222V86.6667Z" fill="white"/>
<path d="M253.333 86.6667H247.778V92.2222H253.333V86.6667Z" fill="white"/>
<path d="M264.444 86.6667H258.889V92.2222H264.444V86.6667Z" fill="white"/>
<path d="M31.1111 92.2222H25.5555V97.7778H31.1111V92.2222Z" fill="white"/>
<path d="M36.6666 92.2222H31.1111V97.7778H36.6666V92.2222Z" fill="white"/>
<path d="M53.3333 92.2222H47.7778V97.7778H53.3333V92.2222Z" fill="white"/>
<path d="M86.6666 92.2222H81.1111V97.7778H86.6666V92.2222Z" fill="white"/>
<path d="M108.889 92.2222H103.333V97.7778H108.889V92.2222Z" fill="white"/>
<path d="M142.222 92.2222H136.667V97.7778H142.222V92.2222Z" fill="white"/>
<path d="M153.333 92.2222H147.778V97.7778H153.333V92.2222Z" fill="white"/>
<path d="M164.444 92.2222H158.889V97.7778H164.444V92.2222Z" fill="white"/>
<path d="M170 92.2222H164.444V97.7778H170V92.2222Z" fill="white"/>
<path d="M181.111 92.2222H175.556V97.7778H181.111V92.2222Z" fill="white"/>
<path d="M186.667 92.2222H181.111V97.7778H186.667V92.2222Z" fill="white"/>
<path d="M192.222 92.2222H186.667V97.7778H192.222V92.2222Z" fill="white"/>
<path d="M197.778 92.2222H192.222V97.7778H197.778V92.2222Z" fill="white"/>
<path d="M203.333 92.2222H197.778V97.7778H203.333V92.2222Z" fill="white"/>
<path d="M220 92.2222H214.444V97.7778H220V92.2222Z" fill="white"/>
<path d="M225.556 92.2222H220V97.7778H225.556V92.2222Z" fill="white"/>
<path d="M236.667 92.2222H231.111V97.7778H236.667V92.2222Z" fill="white"/>
<path d="M258.889 92.2222H253.333V97.7778H258.889V92.2222Z" fill="white"/>
<path d="M264.444 92.2222H258.889V97.7778H264.444V92.2222Z" fill="white"/>
<path d="M31.1111 97.7778H25.5555V103.333H31.1111V97.7778Z" fill="white"/>
<path d="M42.2222 97.7778H36.6667V103.333H42.2222V97.7778Z" fill="white"/>
<path d="M47.7778 97.7778H42.2222V103.333H47.7778V97.7778Z" fill="white"/>
<path d="M53.3333 97.7778H47.7778V103.333H53.3333V97.7778Z" fill="white"/>
<path d="M58.8889 97.7778H53.3333V103.333H58.8889V97.7778Z" fill="white"/>
<path d="M64.4445 97.7778H58.8889V103.333H64.4445V97.7778Z" fill="white"/>
<path d="M75.5556 97.7778H70V103.333H75.5556V97.7778Z" fill="white"/>
<path d="M81.1111 97.7778H75.5555V103.333H81.1111V97.7778Z" fill="white"/>
<path d="M86.6666 97.7778H81.1111V103.333H86.6666V97.7778Z" fill="white"/>
<path d="M92.2222 97.7778H86.6667V103.333H92.2222V97.7778Z" fill="white"/>
<path d="M103.333 97.7778H97.7778V103.333H103.333V97.7778Z" fill="white"/>
<path d="M114.444 97.7778H108.889V103.333H114.444V97.7778Z" fill="white"/>
<path d="M164.444 97.7778H158.889V103.333H164.444V97.7778Z" fill="white"/>
<path d="M170 97.7778H164.444V103.333H170V97.7778Z" fill="white"/>
<path d="M175.556 97.7778H170V103.333H175.556V97.7778Z" fill="white"/>
<path d="M181.111 97.7778H175.556V103.333H181.111V97.7778Z" fill="white"/>
<path d="M186.667 97.7778H181.111V103.333H186.667V97.7778Z" fill="white"/>
<path d="M192.222 97.7778H186.667V103.333H192.222V97.7778Z" fill="white"/>
<path d="M197.778 97.7778H192.222V103.333H197.778V97.7778Z" fill="white"/>
<path d="M203.333 97.7778H197.778V103.333H203.333V97.7778Z" fill="white"/>
<path d="M208.889 97.7778H203.333V103.333H208.889V97.7778Z" fill="white"/>
<path d="M220 97.7778H214.444V103.333H220V97.7778Z" fill="white"/>
<path d="M225.556 97.7778H220V103.333H225.556V97.7778Z" fill="white"/>
<path d="M258.889 97.7778H253.333V103.333H258.889V97.7778Z" fill="white"/>
<path d="M264.444 97.7778H258.889V103.333H264.444V97.7778Z" fill="white"/>
<path d="M31.1111 103.333H25.5555V108.889H31.1111V103.333Z" fill="white"/>
<path d="M53.3333 103.333H47.7778V108.889H53.3333V103.333Z" fill="white"/>
<path d="M64.4445 103.333H58.8889V108.889H64.4445V103.333Z" fill="white"/>
<path d="M70 103.333H64.4445V108.889H70V103.333Z" fill="white"/>
<path d="M75.5556 103.333H70V108.889H75.5556V103.333Z" fill="white"/>
<path d="M81.1111 103.333H75.5555V108.889H81.1111V103.333Z" fill="white"/>
<path d="M92.2222 103.333H86.6667V108.889H92.2222V103.333Z" fill="white"/>
<path d="M103.333 103.333H97.7778V108.889H103.333V103.333Z" fill="white"/>
<path d="M131.111 103.333H125.556V108.889H131.111V103.333Z" fill="white"/>
<path d="M142.222 103.333H136.667V108.889H142.222V103.333Z" fill="white"/>
<path d="M147.778 103.333H142.222V108.889H147.778V103.333Z" fill="white"/>
<path d="M153.333 103.333H147.778V108.889H153.333V103.333Z" fill="white"/>
<path d="M158.889 103.333H153.333V108.889H158.889V103.333Z" fill="white"/>
<path d="M170 103.333H164.444V108.889H170V103.333Z" fill="white"/>
<path d="M192.222 103.333H186.667V108.889H192.222V103.333Z" fill="white"/>
<path d="M203.333 103.333H197.778V108.889H203.333V103.333Z" fill="white"/>
<path d="M214.444 103.333H208.889V108.889H214.444V103.333Z" fill="white"/>
<path d="M220 103.333H214.444V108.889H220V103.333Z" fill="white"/>
<path d="M231.111 103.333H225.556V108.889H231.111V103.333Z" fill="white"/>
<path d="M236.667 103.333H231.111V108.889H236.667V103.333Z" fill="white"/>
<path d="M242.222 103.333H236.667V108.889H242.222V103.333Z" fill="white"/>
<path d="M270 103.333H264.444V108.889H270V103.333Z" fill="white"/>
<path d="M25.5556 108.889H20V114.444H25.5556V108.889Z" fill="white"/>
<path d="M42.2222 108.889H36.6667V114.444H42.2222V108.889Z" fill="white"/>
<path d="M47.7778 108.889H42.2222V114.444H47.7778V108.889Z" fill="white"/>
<path d="M53.3333 108.889H47.7778V114.444H53.3333V108.889Z" fill="white"/>
<path d="M58.8889 108.889H53.3333V114.444H58.8889V108.889Z" fill="white"/>
<path d="M64.4445 108.889H58.8889V114.444H64.4445V108.889Z" fill="white"/>
<path d="M70 108.889H64.4445V114.444H70V108.889Z" fill="white"/>
<path d="M86.6666 108.889H81.1111V114.444H86.6666V108.889Z" fill="white"/>
<path d="M108.889 108.889H103.333V114.444H108.889V108.889Z" fill="white"/>
<path d="M114.444 108.889H108.889V114.444H114.444V108.889Z" fill="white"/>
<path d="M125.556 108.889H120V114.444H125.556V108.889Z" fill="white"/>
<path d="M136.667 108.889H131.111V114.444H136.667V108.889Z" fill="white"/>
<path d="M153.333 108.889H147.778V114.444H153.333V108.889Z" fill="white"/>
<path d="M158.889 108.889H153.333V114.444H158.889V108.889Z" fill="white"/>
<path d="M164.444 108.889H158.889V114.444H164.444V108.889Z" fill="white"/>
<path d="M175.556 108.889H170V114.444H175.556V108.889Z" fill="white"/>
<path d="M186.667 108.889H181.111V114.444H186.667V108.889Z" fill="white"/>
<path d="M203.333 108.889H197.778V114.444H203.333V108.889Z" fill="white"/>
<path d="M214.444 108.889H208.889V114.444H214.444V108.889Z" fill="white"/>
<path d="M220 108.889H214.444V114.444H220V108.889Z" fill="white"/>
<path d="M242.222 108.889H236.667V114.444H242.222V108.889Z" fill="white"/>
<path d="M253.333 108.889H247.778V114.444H253.333V108.889Z" fill="white"/>
<path d="M270 108.889H264.444V114.444H270V108.889Z" fill="white"/>
<path d="M53.3333 114.444H47.7778V120H53.3333V114.444Z" fill="white"/>
<path d="M70 114.444H64.4445V120H70V114.444Z" fill="white"/>
<path d="M81.1111 114.444H75.5555V120H81.1111V114.444Z" fill="white"/>
<path d="M92.2222 114.444H86.6667V120H92.2222V114.444Z" fill="white"/>
<path d="M97.7778 114.444H92.2222V120H97.7778V114.444Z" fill="white"/>
<path d="M103.333 114.444H97.7778V120H103.333V114.444Z" fill="white"/>
<path d="M108.889 114.444H103.333V120H108.889V114.444Z" fill="white"/>
<path d="M114.444 114.444H108.889V120H114.444V114.444Z" fill="white"/>
<path d="M120 114.444H114.444V120H120V114.444Z" fill="white"/>
<path d="M164.444 114.444H158.889V120H164.444V114.444Z" fill="white"/>
<path d="M170 114.444H164.444V120H170V114.444Z" fill="white"/>
<path d="M181.111 114.444H175.556V120H181.111V114.444Z" fill="white"/>
<path d="M186.667 114.444H181.111V120H186.667V114.444Z" fill="white"/>
<path d="M192.222 114.444H186.667V120H192.222V114.444Z" fill="white"/>
<path d="M220 114.444H214.444V120H220V114.444Z" fill="white"/>
<path d="M225.556 114.444H220V120H225.556V114.444Z" fill="white"/>
<path d="M236.667 114.444H231.111V120H236.667V114.444Z" fill="white"/>
<path d="M247.778 114.444H242.222V120H247.778V114.444Z" fill="white"/>
<path d="M258.889 114.444H253.333V120H258.889V114.444Z" fill="white"/>
<path d="M264.444 114.444H258.889V120H264.444V114.444Z" fill="white"/>
<path d="M42.2222 120H36.6667V125.556H42.2222V120Z" fill="white"/>
<path d="M58.8889 120H53.3333V125.556H58.8889V120Z" fill="white"/>
<path d="M64.4445 120H58.8889V125.556H64.4445V120Z" fill="white"/>
<path d="M75.5556 120H70V125.556H75.5556V120Z" fill="white"/>
<path d="M81.1111 120H75.5555V125.556H81.1111V120Z" fill="white"/>
<path d="M92.2222 120H86.6667V125.556H92.2222V120Z" fill="white"/>
<path d="M97.7778 120H92.2222V125.556H97.7778V120Z" fill="white"/>
<path d="M103.333 120H97.7778V125.556H103.333V120Z" fill="white"/>
<path d="M125.556 120H120V125.556H125.556V120Z" fill="white"/>
<path d="M131.111 120H125.556V125.556H131.111V120Z" fill="white"/>
<path d="M136.667 120H131.111V125.556H136.667V120Z" fill="white"/>
<path d="M142.222 120H136.667V125.556H142.222V120Z" fill="white"/>
<path d="M164.444 120H158.889V125.556H164.444V120Z" fill="white"/>
<path d="M170 120H164.444V125.556H170V120Z" fill="white"/>
<path d="M186.667 120H181.111V125.556H186.667V120Z" fill="white"/>
<path d="M192.222 120H186.667V125.556H192.222V120Z" fill="white"/>
<path d="M197.778 120H192.222V125.556H197.778V120Z" fill="white"/>
<path d="M225.556 120H220V125.556H225.556V120Z" fill="white"/>
<path d="M264.444 120H258.889V125.556H264.444V120Z" fill="white"/>
<path d="M25.5556 125.556H20V131.111H25.5556V125.556Z" fill="white"/>
<path d="M75.5556 125.556H70V131.111H75.5556V125.556Z" fill="white"/>
<path d="M92.2222 125.556H86.6667V131.111H92.2222V125.556Z" fill="white"/>
<path d="M114.444 125.556H108.889V131.111H114.444V125.556Z" fill="white"/>
<path d="M125.556 125.556H120V131.111H125.556V125.556Z" fill="white"/>
<path d="M131.111 125.556H125.556V131.111H131.111V125.556Z" fill="white"/>
<path d="M147.778 125.556H142.222V131.111H147.778V125.556Z" fill="white"/>
<path d="M153.333 125.556H147.778V131.111H153.333V125.556Z" fill="white"/>
<path d="M164.444 125.556H158.889V131.111H164.444V125.556Z" fill="white"/>
<path d="M170 125.556H164.444V131.111H170V125.556Z" fill="white"/>
<path d="M175.556 125.556H170V131.111H175.556V125.556Z" fill="white"/>
<path d="M192.222 125.556H186.667V131.111H192.222V125.556Z" fill="white"/>
<path d="M197.778 125.556H192.222V131.111H197.778V125.556Z" fill="white"/>
<path d="M203.333 125.556H197.778V131.111H203.333V125.556Z" fill="white"/>
<path d="M225.556 125.556H220V131.111H225.556V125.556Z" fill="white"/>
<path d="M270 125.556H264.444V131.111H270V125.556Z" fill="white"/>
<path d="M25.5556 131.111H20V136.667H25.5556V131.111Z" fill="white"/>
<path d="M47.7778 131.111H42.2222V136.667H47.7778V131.111Z" fill="white"/>
<path d="M53.3333 131.111H47.7778V136.667H53.3333V131.111Z" fill="white"/>
<path d="M58.8889 131.111H53.3333V136.667H58.8889V131.111Z" fill="white"/>
<path d="M64.4445 131.111H58.8889V136.667H64.4445V131.111Z" fill="white"/>
<path d="M70 131.111H64.4445V136.667H70V131.111Z" fill="white"/>
<path d="M75.5556 131.111H70V136.667H75.5556V131.111Z" fill="white"/>
<path d="M81.1111 131.111H75.5555V136.667H81.1111V131.111Z" fill="white"/>
<path d="M103.333 131.111H97.7778V136.667H103.333V131.111Z" fill="white"/>
<path d="M114.444 131.111H108.889V136.667H114.444V131.111Z" fill="white"/>
<path d="M120 131.111H114.444V136.667H120V131.111Z" fill="white"/>
<path d="M125.556 131.111H120V136.667H125.556V131.111Z" fill="white"/>
<path d="M131.111 131.111H125.556V136.667H131.111V131.111Z" fill="white"/>
<path d="M136.667 131.111H131.111V136.667H136.667V131.111Z" fill="white"/>
<path d="M142.222 131.111H136.667V136.667H142.222V131.111Z" fill="white"/>
<path d="M147.778 131.111H142.222V136.667H147.778V131.111Z" fill="white"/>
<path d="M153.333 131.111H147.778V136.667H153.333V131.111Z" fill="white"/>
<path d="M158.889 131.111H153.333V136.667H158.889V131.111Z" fill="white"/>
<path d="M170 131.111H164.444V136.667H170V131.111Z" fill="white"/>
<path d="M175.556 131.111H170V136.667H175.556V131.111Z" fill="white"/>
<path d="M203.333 131.111H197.778V136.667H203.333V131.111Z" fill="white"/>
<path d="M214.444 131.111H208.889V136.667H214.444V131.111Z" fill="white"/>
<path d="M220 131.111H214.444V136.667H220V131.111Z" fill="white"/>
<path d="M225.556 131.111H220V136.667H225.556V131.111Z" fill="white"/>
<path d="M231.111 131.111H225.556V136.667H231.111V131.111Z" fill="white"/>
<path d="M236.667 131.111H231.111V136.667H236.667V131.111Z" fill="white"/>
<path d="M242.222 131.111H236.667V136.667H242.222V131.111Z" fill="white"/>
<path d="M247.778 131.111H242.222V136.667H247.778V131.111Z" fill="white"/>
<path d="M253.333 131.111H247.778V136.667H253.333V131.111Z" fill="white"/>
<path d="M270 131.111H264.444V136.667H270V131.111Z" fill="white"/>
<path d="M25.5556 136.667H20V142.222H25.5556V136.667Z" fill="white"/>
<path d="M36.6666 136.667H31.1111V142.222H36.6666V136.667Z" fill="white"/>
<path d="M47.7778 136.667H42.2222V142.222H47.7778V136.667Z" fill="white"/>
<path d="M70 136.667H64.4445V142.222H70V136.667Z" fill="white"/>
<path d="M86.6666 136.667H81.1111V142.222H86.6666V136.667Z" fill="white"/>
<path d="M92.2222 136.667H86.6667V142.222H92.2222V136.667Z" fill="white"/>
<path d="M103.333 136.667H97.7778V142.222H103.333V136.667Z" fill="white"/>
<path d="M108.889 136.667H103.333V142.222H108.889V136.667Z" fill="white"/>
<path d="M120 136.667H114.444V142.222H120V136.667Z" fill="white"/>
<path d="M136.667 136.667H131.111V142.222H136.667V136.667Z" fill="white"/>
<path d="M158.889 136.667H153.333V142.222H158.889V136.667Z" fill="white"/>
<path d="M170 136.667H164.444V142.222H170V136.667Z" fill="white"/>
<path d="M175.556 136.667H170V142.222H175.556V136.667Z" fill="white"/>
<path d="M186.667 136.667H181.111V142.222H186.667V136.667Z" fill="white"/>
<path d="M192.222 136.667H186.667V142.222H192.222V136.667Z" fill="white"/>
<path d="M197.778 136.667H192.222V142.222H197.778V136.667Z" fill="white"/>
<path d="M203.333 136.667H197.778V142.222H203.333V136.667Z" fill="white"/>
<path d="M220 136.667H214.444V142.222H220V136.667Z" fill="white"/>
<path d="M225.556 136.667H220V142.222H225.556V136.667Z" fill="white"/>
<path d="M247.778 136.667H242.222V142.222H247.778V136.667Z" fill="white"/>
<path d="M253.333 136.667H247.778V142.222H253.333V136.667Z" fill="white"/>
<path d="M258.889 136.667H253.333V142.222H258.889V136.667Z" fill="white"/>
<path d="M31.1111 142.222H25.5555V147.778H31.1111V142.222Z" fill="white"/>
<path d="M47.7778 142.222H42.2222V147.778H47.7778V142.222Z" fill="white"/>
<path d="M58.8889 142.222H53.3333V147.778H58.8889V142.222Z" fill="white"/>
<path d="M70 142.222H64.4445V147.778H70V142.222Z" fill="white"/>
<path d="M86.6666 142.222H81.1111V147.778H86.6666V142.222Z" fill="white"/>
<path d="M108.889 142.222H103.333V147.778H108.889V142.222Z" fill="white"/>
<path d="M125.556 142.222H120V147.778H125.556V142.222Z" fill="white"/>
<path d="M131.111 142.222H125.556V147.778H131.111V142.222Z" fill="white"/>
<path d="M136.667 142.222H131.111V147.778H136.667V142.222Z" fill="white"/>
<path d="M147.778 142.222H142.222V147.778H147.778V142.222Z" fill="white"/>
<path d="M158.889 142.222H153.333V147.778H158.889V142.222Z" fill="white"/>
<path d="M164.444 142.222H158.889V147.778H164.444V142.222Z" fill="white"/>
<path d="M186.667 142.222H181.111V147.778H186.667V142.222Z" fill="white"/>
<path d="M192.222 142.222H186.667V147.778H192.222V142.222Z" fill="white"/>
<path d="M203.333 142.222H197.778V147.778H203.333V142.222Z" fill="white"/>
<path d="M225.556 142.222H220V147.778H225.556V142.222Z" fill="white"/>
<path d="M236.667 142.222H231.111V147.778H236.667V142.222Z" fill="white"/>
<path d="M247.778 142.222H242.222V147.778H247.778V142.222Z" fill="white"/>
<path d="M253.333 142.222H247.778V147.778H253.333V142.222Z" fill="white"/>
<path d="M264.444 142.222H258.889V147.778H264.444V142.222Z" fill="white"/>
<path d="M36.6666 147.778H31.1111V153.333H36.6666V147.778Z" fill="white"/>
<path d="M42.2222 147.778H36.6667V153.333H42.2222V147.778Z" fill="white"/>
<path d="M47.7778 147.778H42.2222V153.333H47.7778V147.778Z" fill="white"/>
<path d="M70 147.778H64.4445V153.333H70V147.778Z" fill="white"/>
<path d="M81.1111 147.778H75.5555V153.333H81.1111V147.778Z" fill="white"/>
<path d="M86.6666 147.778H81.1111V153.333H86.6666V147.778Z" fill="white"/>
<path d="M92.2222 147.778H86.6667V153.333H92.2222V147.778Z" fill="white"/>
<path d="M97.7778 147.778H92.2222V153.333H97.7778V147.778Z" fill="white"/>
<path d="M108.889 147.778H103.333V153.333H108.889V147.778Z" fill="white"/>
<path d="M120 147.778H114.444V153.333H120V147.778Z" fill="white"/>
<path d="M125.556 147.778H120V153.333H125.556V147.778Z" fill="white"/>
<path d="M136.667 147.778H131.111V153.333H136.667V147.778Z" fill="white"/>
<path d="M158.889 147.778H153.333V153.333H158.889V147.778Z" fill="white"/>
<path d="M164.444 147.778H158.889V153.333H164.444V147.778Z" fill="white"/>
<path d="M170 147.778H164.444V153.333H170V147.778Z" fill="white"/>
<path d="M175.556 147.778H170V153.333H175.556V147.778Z" fill="white"/>
<path d="M203.333 147.778H197.778V153.333H203.333V147.778Z" fill="white"/>
<path d="M214.444 147.778H208.889V153.333H214.444V147.778Z" fill="white"/>
<path d="M220 147.778H214.444V153.333H220V147.778Z" fill="white"/>
<path d="M225.556 147.778H220V153.333H225.556V147.778Z" fill="white"/>
<path d="M247.778 147.778H242.222V153.333H247.778V147.778Z" fill="white"/>
<path d="M25.5556 153.333H20V158.889H25.5556V153.333Z" fill="white"/>
<path d="M36.6666 153.333H31.1111V158.889H36.6666V153.333Z" fill="white"/>
<path d="M42.2222 153.333H36.6667V158.889H42.2222V153.333Z" fill="white"/>
<path d="M47.7778 153.333H42.2222V158.889H47.7778V153.333Z" fill="white"/>
<path d="M53.3333 153.333H47.7778V158.889H53.3333V153.333Z" fill="white"/>
<path d="M58.8889 153.333H53.3333V158.889H58.8889V153.333Z" fill="white"/>
<path d="M64.4445 153.333H58.8889V158.889H64.4445V153.333Z" fill="white"/>
<path d="M70 153.333H64.4445V158.889H70V153.333Z" fill="white"/>
<path d="M81.1111 153.333H75.5555V158.889H81.1111V153.333Z" fill="white"/>
<path d="M103.333 153.333H97.7778V158.889H103.333V153.333Z" fill="white"/>
<path d="M114.444 153.333H108.889V158.889H114.444V153.333Z" fill="white"/>
<path d="M120 153.333H114.444V158.889H120V153.333Z" fill="white"/>
<path d="M136.667 153.333H131.111V158.889H136.667V153.333Z" fill="white"/>
<path d="M142.222 153.333H136.667V158.889H142.222V153.333Z" fill="white"/>
<path d="M147.778 153.333H142.222V158.889H147.778V153.333Z" fill="white"/>
<path d="M153.333 153.333H147.778V158.889H153.333V153.333Z" fill="white"/>
<path d="M158.889 153.333H153.333V158.889H158.889V153.333Z" fill="white"/>
<path d="M192.222 153.333H186.667V158.889H192.222V153.333Z" fill="white"/>
<path d="M203.333 153.333H197.778V158.889H203.333V153.333Z" fill="white"/>
<path d="M208.889 153.333H203.333V158.889H208.889V153.333Z" fill="white"/>
<path d="M214.444 153.333H208.889V158.889H214.444V153.333Z" fill="white"/>
<path d="M220 153.333H214.444V158.889H220V153.333Z" fill="white"/>
<path d="M225.556 153.333H220V158.889H225.556V153.333Z" fill="white"/>
<path d="M231.111 153.333H225.556V158.889H231.111V153.333Z" fill="white"/>
<path d="M236.667 153.333H231.111V158.889H236.667V153.333Z" fill="white"/>
<path d="M242.222 153.333H236.667V158.889H242.222V153.333Z" fill="white"/>
<path d="M247.778 153.333H242.222V158.889H247.778V153.333Z" fill="white"/>
<path d="M253.333 153.333H247.778V158.889H253.333V153.333Z" fill="white"/>
<path d="M270 153.333H264.444V158.889H270V153.333Z" fill="white"/>
<path d="M42.2222 158.889H36.6667V164.444H42.2222V158.889Z" fill="white"/>
<path d="M47.7778 158.889H42.2222V164.444H47.7778V158.889Z" fill="white"/>
<path d="M53.3333 158.889H47.7778V164.444H53.3333V158.889Z" fill="white"/>
<path d="M75.5556 158.889H70V164.444H75.5556V158.889Z" fill="white"/>
<path d="M81.1111 158.889H75.5555V164.444H81.1111V158.889Z" fill="white"/>
<path d="M92.2222 158.889H86.6667V164.444H92.2222V158.889Z" fill="white"/>
<path d="M97.7778 158.889H92.2222V164.444H97.7778V158.889Z" fill="white"/>
<path d="M103.333 158.889H97.7778V164.444H103.333V158.889Z" fill="white"/>
<path d="M114.444 158.889H108.889V164.444H114.444V158.889Z" fill="white"/>
<path d="M125.556 158.889H120V164.444H125.556V158.889Z" fill="white"/>
<path d="M147.778 158.889H142.222V164.444H147.778V158.889Z" fill="white"/>
<path d="M153.333 158.889H147.778V164.444H153.333V158.889Z" fill="white"/>
<path d="M158.889 158.889H153.333V164.444H158.889V158.889Z" fill="white"/>
<path d="M170 158.889H164.444V164.444H170V158.889Z" fill="white"/>
<path d="M175.556 158.889H170V164.444H175.556V158.889Z" fill="white"/>
<path d="M192.222 158.889H186.667V164.444H192.222V158.889Z" fill="white"/>
<path d="M208.889 158.889H203.333V164.444H208.889V158.889Z" fill="white"/>
<path d="M231.111 158.889H225.556V164.444H231.111V158.889Z" fill="white"/>
<path d="M236.667 158.889H231.111V164.444H236.667V158.889Z" fill="white"/>
<path d="M258.889 158.889H253.333V164.444H258.889V158.889Z" fill="white"/>
<path d="M264.444 158.889H258.889V164.444H264.444V158.889Z" fill="white"/>
<path d="M36.6666 164.444H31.1111V170H36.6666V164.444Z" fill="white"/>
<path d="M47.7778 164.444H42.2222V170H47.7778V164.444Z" fill="white"/>
<path d="M53.3333 164.444H47.7778V170H53.3333V164.444Z" fill="white"/>
<path d="M58.8889 164.444H53.3333V170H58.8889V164.444Z" fill="white"/>
<path d="M64.4445 164.444H58.8889V170H64.4445V164.444Z" fill="white"/>
<path d="M70 164.444H64.4445V170H70V164.444Z" fill="white"/>
<path d="M81.1111 164.444H75.5555V170H81.1111V164.444Z" fill="white"/>
<path d="M97.7778 164.444H92.2222V170H97.7778V164.444Z" fill="white"/>
<path d="M114.444 164.444H108.889V170H114.444V164.444Z" fill="white"/>
<path d="M136.667 164.444H131.111V170H136.667V164.444Z" fill="white"/>
<path d="M147.778 164.444H142.222V170H147.778V164.444Z" fill="white"/>
<path d="M158.889 164.444H153.333V170H158.889V164.444Z" fill="white"/>
<path d="M170 164.444H164.444V170H170V164.444Z" fill="white"/>
<path d="M181.111 164.444H175.556V170H181.111V164.444Z" fill="white"/>
<path d="M186.667 164.444H181.111V170H186.667V164.444Z" fill="white"/>
<path d="M192.222 164.444H186.667V170H192.222V164.444Z" fill="white"/>
<path d="M220 164.444H214.444V170H220V164.444Z" fill="white"/>
<path d="M231.111 164.444H225.556V170H231.111V164.444Z" fill="white"/>
<path d="M247.778 164.444H242.222V170H247.778V164.444Z" fill="white"/>
<path d="M253.333 164.444H247.778V170H253.333V164.444Z" fill="white"/>
<path d="M264.444 164.444H258.889V170H264.444V164.444Z" fill="white"/>
<path d="M31.1111 170H25.5555V175.556H31.1111V170Z" fill="white"/>
<path d="M36.6666 170H31.1111V175.556H36.6666V170Z" fill="white"/>
<path d="M47.7778 170H42.2222V175.556H47.7778V170Z" fill="white"/>
<path d="M53.3333 170H47.7778V175.556H53.3333V170Z" fill="white"/>
<path d="M70 170H64.4445V175.556H70V170Z" fill="white"/>
<path d="M75.5556 170H70V175.556H75.5556V170Z" fill="white"/>
<path d="M81.1111 170H75.5555V175.556H81.1111V170Z" fill="white"/>
<path d="M103.333 170H97.7778V175.556H103.333V170Z" fill="white"/>
<path d="M125.556 170H120V175.556H125.556V170Z" fill="white"/>
<path d="M131.111 170H125.556V175.556H131.111V170Z" fill="white"/>
<path d="M136.667 170H131.111V175.556H136.667V170Z" fill="white"/>
<path d="M147.778 170H142.222V175.556H147.778V170Z" fill="white"/>
<path d="M186.667 170H181.111V175.556H186.667V170Z" fill="white"/>
<path d="M203.333 170H197.778V175.556H203.333V170Z" fill="white"/>
<path d="M214.444 170H208.889V175.556H214.444V170Z" fill="white"/>
<path d="M220 170H214.444V175.556H220V170Z" fill="white"/>
<path d="M225.556 170H220V175.556H225.556V170Z" fill="white"/>
<path d="M247.778 170H242.222V175.556H247.778V170Z" fill="white"/>
<path d="M264.444 170H258.889V175.556H264.444V170Z" fill="white"/>
<path d="M42.2222 175.556H36.6667V181.111H42.2222V175.556Z" fill="white"/>
<path d="M58.8889 175.556H53.3333V181.111H58.8889V175.556Z" fill="white"/>
<path d="M86.6666 175.556H81.1111V181.111H86.6666V175.556Z" fill="white"/>
<path d="M92.2222 175.556H86.6667V181.111H92.2222V175.556Z" fill="white"/>
<path d="M97.7778 175.556H92.2222V181.111H97.7778V175.556Z" fill="white"/>
<path d="M108.889 175.556H103.333V181.111H108.889V175.556Z" fill="white"/>
<path d="M120 175.556H114.444V181.111H120V175.556Z" fill="white"/>
<path d="M153.333 175.556H147.778V181.111H153.333V175.556Z" fill="white"/>
<path d="M164.444 175.556H158.889V181.111H164.444V175.556Z" fill="white"/>
<path d="M175.556 175.556H170V181.111H175.556V175.556Z" fill="white"/>
<path d="M186.667 175.556H181.111V181.111H186.667V175.556Z" fill="white"/>
<path d="M203.333 175.556H197.778V181.111H203.333V175.556Z" fill="white"/>
<path d="M208.889 175.556H203.333V181.111H208.889V175.556Z" fill="white"/>
<path d="M231.111 175.556H225.556V181.111H231.111V175.556Z" fill="white"/>
<path d="M242.222 175.556H236.667V181.111H242.222V175.556Z" fill="white"/>
<path d="M247.778 175.556H242.222V181.111H247.778V175.556Z" fill="white"/>
<path d="M253.333 175.556H247.778V181.111H253.333V175.556Z" fill="white"/>
<path d="M270 175.556H264.444V181.111H270V175.556Z" fill="white"/>
<path d="M25.5556 181.111H20V186.667H25.5556V181.111Z" fill="white"/>
<path d="M31.1111 181.111H25.5555V186.667H31.1111V181.111Z" fill="white"/>
<path d="M36.6666 181.111H31.1111V186.667H36.6666V181.111Z" fill="white"/>
<path d="M47.7778 181.111H42.2222V186.667H47.7778V181.111Z" fill="white"/>
<path d="M53.3333 181.111H47.7778V186.667H53.3333V181.111Z" fill="white"/>
<path d="M64.4445 181.111H58.8889V186.667H64.4445V181.111Z" fill="white"/>
<path d="M70 181.111H64.4445V186.667H70V181.111Z" fill="white"/>
<path d="M81.1111 181.111H75.5555V186.667H81.1111V181.111Z" fill="white"/>
<path d="M97.7778 181.111H92.2222V186.667H97.7778V181.111Z" fill="white"/>
<path d="M103.333 181.111H97.7778V186.667H103.333V181.111Z" fill="white"/>
<path d="M120 181.111H114.444V186.667H120V181.111Z" fill="white"/>
<path d="M131.111 181.111H125.556V186.667H131.111V181.111Z" fill="white"/>
<path d="M136.667 181.111H131.111V186.667H136.667V181.111Z" fill="white"/>
<path d="M142.222 181.111H136.667V186.667H142.222V181.111Z" fill="white"/>
<path d="M147.778 181.111H142.222V186.667H147.778V181.111Z" fill="white"/>
<path d="M153.333 181.111H147.778V186.667H153.333V181.111Z" fill="white"/>
<path d="M170 181.111H164.444V186.667H170V181.111Z" fill="white"/>
<path d="M175.556 181.111H170V186.667H175.556V181.111Z" fill="white"/>
<path d="M181.111 181.111H175.556V186.667H181.111V181.111Z" fill="white"/>
<path d="M186.667 181.111H181.111V186.667H186.667V181.111Z" fill="white"/>
<path d="M192.222 181.111H186.667V186.667H192.222V181.111Z" fill="white"/>
<path d="M197.778 181.111H192.222V186.667H197.778V181.111Z" fill="white"/>
<path d="M231.111 181.111H225.556V186.667H231.111V181.111Z" fill="white"/>
<path d="M242.222 181.111H236.667V186.667H242.222V181.111Z" fill="white"/>
<path d="M258.889 181.111H253.333V186.667H258.889V181.111Z" fill="white"/>
<path d="M270 181.111H264.444V186.667H270V181.111Z" fill="white"/>
<path d="M25.5556 186.667H20V192.222H25.5556V186.667Z" fill="white"/>
<path d="M31.1111 186.667H25.5555V192.222H31.1111V186.667Z" fill="white"/>
<path d="M36.6666 186.667H31.1111V192.222H36.6666V186.667Z" fill="white"/>
<path d="M42.2222 186.667H36.6667V192.222H42.2222V186.667Z" fill="white"/>
<path d="M53.3333 186.667H47.7778V192.222H53.3333V186.667Z" fill="white"/>
<path d="M58.8889 186.667H53.3333V192.222H58.8889V186.667Z" fill="white"/>
<path d="M64.4445 186.667H58.8889V192.222H64.4445V186.667Z" fill="white"/>
<path d="M75.5556 186.667H70V192.222H75.5556V186.667Z" fill="white"/>
<path d="M81.1111 186.667H75.5555V192.222H81.1111V186.667Z" fill="white"/>
<path d="M92.2222 186.667H86.6667V192.222H92.2222V186.667Z" fill="white"/>
<path d="M97.7778 186.667H92.2222V192.222H97.7778V186.667Z" fill="white"/>
<path d="M108.889 186.667H103.333V192.222H108.889V186.667Z" fill="white"/>
<path d="M136.667 186.667H131.111V192.222H136.667V186.667Z" fill="white"/>
<path d="M142.222 186.667H136.667V192.222H142.222V186.667Z" fill="white"/>
<path d="M147.778 186.667H142.222V192.222H147.778V186.667Z" fill="white"/>
<path d="M153.333 186.667H147.778V192.222H153.333V186.667Z" fill="white"/>
<path d="M192.222 186.667H186.667V192.222H192.222V186.667Z" fill="white"/>
<path d="M197.778 186.667H192.222V192.222H197.778V186.667Z" fill="white"/>
<path d="M225.556 186.667H220V192.222H225.556V186.667Z" fill="white"/>
<path d="M242.222 186.667H236.667V192.222H242.222V186.667Z" fill="white"/>
<path d="M247.778 186.667H242.222V192.222H247.778V186.667Z" fill="white"/>
<path d="M253.333 186.667H247.778V192.222H253.333V186.667Z" fill="white"/>
<path d="M264.444 186.667H258.889V192.222H264.444V186.667Z" fill="white"/>
<path d="M25.5556 192.222H20V197.778H25.5556V192.222Z" fill="white"/>
<path d="M36.6666 192.222H31.1111V197.778H36.6666V192.222Z" fill="white"/>
<path d="M42.2222 192.222H36.6667V197.778H42.2222V192.222Z" fill="white"/>
<path d="M47.7778 192.222H42.2222V197.778H47.7778V192.222Z" fill="white"/>
<path d="M70 192.222H64.4445V197.778H70V192.222Z" fill="white"/>
<path d="M81.1111 192.222H75.5555V197.778H81.1111V192.222Z" fill="white"/>
<path d="M86.6666 192.222H81.1111V197.778H86.6666V192.222Z" fill="white"/>
<path d="M92.2222 192.222H86.6667V197.778H92.2222V192.222Z" fill="white"/>
<path d="M108.889 192.222H103.333V197.778H108.889V192.222Z" fill="white"/>
<path d="M114.444 192.222H108.889V197.778H114.444V192.222Z" fill="white"/>
<path d="M125.556 192.222H120V197.778H125.556V192.222Z" fill="white"/>
<path d="M164.444 192.222H158.889V197.778H164.444V192.222Z" fill="white"/>
<path d="M170 192.222H164.444V197.778H170V192.222Z" fill="white"/>
<path d="M175.556 192.222H170V197.778H175.556V192.222Z" fill="white"/>
<path d="M203.333 192.222H197.778V197.778H203.333V192.222Z" fill="white"/>
<path d="M208.889 192.222H203.333V197.778H208.889V192.222Z" fill="white"/>
<path d="M236.667 192.222H231.111V197.778H236.667V192.222Z" fill="white"/>
<path d="M242.222 192.222H236.667V197.778H242.222V192.222Z" fill="white"/>
<path d="M247.778 192.222H242.222V197.778H247.778V192.222Z" fill="white"/>
<path d="M270 192.222H264.444V197.778H270V192.222Z" fill="white"/>
<path d="M31.1111 197.778H25.5555V203.333H31.1111V197.778Z" fill="white"/>
<path d="M36.6666 197.778H31.1111V203.333H36.6666V197.778Z" fill="white"/>
<path d="M42.2222 197.778H36.6667V203.333H42.2222V197.778Z" fill="white"/>
<path d="M53.3333 197.778H47.7778V203.333H53.3333V197.778Z" fill="white"/>
<path d="M58.8889 197.778H53.3333V203.333H58.8889V197.778Z" fill="white"/>
<path d="M70 197.778H64.4445V203.333H70V197.778Z" fill="white"/>
<path d="M86.6666 197.778H81.1111V203.333H86.6666V197.778Z" fill="white"/>
<path d="M92.2222 197.778H86.6667V203.333H92.2222V197.778Z" fill="white"/>
<path d="M103.333 197.778H97.7778V203.333H103.333V197.778Z" fill="white"/>
<path d="M125.556 197.778H120V203.333H125.556V197.778Z" fill="white"/>
<path d="M131.111 197.778H125.556V203.333H131.111V197.778Z" fill="white"/>
<path d="M142.222 197.778H136.667V203.333H142.222V197.778Z" fill="white"/>
<path d="M153.333 197.778H147.778V203.333H153.333V197.778Z" fill="white"/>
<path d="M170 197.778H164.444V203.333H170V197.778Z" fill="white"/>
<path d="M175.556 197.778H170V203.333H175.556V197.778Z" fill="white"/>
<path d="M186.667 197.778H181.111V203.333H186.667V197.778Z" fill="white"/>
<path d="M203.333 197.778H197.778V203.333H203.333V197.778Z" fill="white"/>
<path d="M231.111 197.778H225.556V203.333H231.111V197.778Z" fill="white"/>
<path d="M236.667 197.778H231.111V203.333H236.667V197.778Z" fill="white"/>
<path d="M253.333 197.778H247.778V203.333H253.333V197.778Z" fill="white"/>
<path d="M270 197.778H264.444V203.333H270V197.778Z" fill="white"/>
<path d="M25.5556 203.333H20V208.889H25.5556V203.333Z" fill="white"/>
<path d="M36.6666 203.333H31.1111V208.889H36.6666V203.333Z" fill="white"/>
<path d="M42.2222 203.333H36.6667V208.889H42.2222V203.333Z" fill="white"/>
<path d="M53.3333 203.333H47.7778V208.889H53.3333V203.333Z" fill="white"/>
<path d="M75.5556 203.333H70V208.889H75.5556V203.333Z" fill="white"/>
<path d="M81.1111 203.333H75.5555V208.889H81.1111V203.333Z" fill="white"/>
<path d="M92.2222 203.333H86.6667V208.889H92.2222V203.333Z" fill="white"/>
<path d="M103.333 203.333H97.7778V208.889H103.333V203.333Z" fill="white"/>
<path d="M114.444 203.333H108.889V208.889H114.444V203.333Z" fill="white"/>
<path d="M120 203.333H114.444V208.889H120V203.333Z" fill="white"/>
<path d="M136.667 203.333H131.111V208.889H136.667V203.333Z" fill="white"/>
<path d="M147.778 203.333H142.222V208.889H147.778V203.333Z" fill="white"/>
<path d="M158.889 203.333H153.333V208.889H158.889V203.333Z" fill="white"/>
<path d="M164.444 203.333H158.889V208.889H164.444V203.333Z" fill="white"/>
<path d="M170 203.333H164.444V208.889H170V203.333Z" fill="white"/>
<path d="M175.556 203.333H170V208.889H175.556V203.333Z" fill="white"/>
<path d="M181.111 203.333H175.556V208.889H181.111V203.333Z" fill="white"/>
<path d="M186.667 203.333H181.111V208.889H186.667V203.333Z" fill="white"/>
<path d="M192.222 203.333H186.667V208.889H192.222V203.333Z" fill="white"/>
<path d="M197.778 203.333H192.222V208.889H197.778V203.333Z" fill="white"/>
<path d="M236.667 203.333H231.111V208.889H236.667V203.333Z" fill="white"/>
<path d="M242.222 203.333H236.667V208.889H242.222V203.333Z" fill="white"/>
<path d="M253.333 203.333H247.778V208.889H253.333V203.333Z" fill="white"/>
<path d="M258.889 203.333H253.333V208.889H258.889V203.333Z" fill="white"/>
<path d="M264.444 203.333H258.889V208.889H264.444V203.333Z" fill="white"/>
<path d="M270 203.333H264.444V208.889H270V203.333Z" fill="white"/>
<path d="M47.7778 208.889H42.2222V214.444H47.7778V208.889Z" fill="white"/>
<path d="M58.8889 208.889H53.3333V214.444H58.8889V208.889Z" fill="white"/>
<path d="M75.5556 208.889H70V214.444H75.5556V208.889Z" fill="white"/>
<path d="M81.1111 208.889H75.5555V214.444H81.1111V208.889Z" fill="white"/>
<path d="M86.6666 208.889H81.1111V214.444H86.6666V208.889Z" fill="white"/>
<path d="M97.7778 208.889H92.2222V214.444H97.7778V208.889Z" fill="white"/>
<path d="M103.333 208.889H97.7778V214.444H103.333V208.889Z" fill="white"/>
<path d="M114.444 208.889H108.889V214.444H114.444V208.889Z" fill="white"/>
<path d="M125.556 208.889H120V214.444H125.556V208.889Z" fill="white"/>
<path d="M136.667 208.889H131.111V214.444H136.667V208.889Z" fill="white"/>
<path d="M153.333 208.889H147.778V214.444H153.333V208.889Z" fill="white"/>
<path d="M158.889 208.889H153.333V214.444H158.889V208.889Z" fill="white"/>
<path d="M164.444 208.889H158.889V214.444H164.444V208.889Z" fill="white"/>
<path d="M170 208.889H164.444V214.444H170V208.889Z" fill="white"/>
<path d="M175.556 208.889H170V214.444H175.556V208.889Z" fill="white"/>
<path d="M181.111 208.889H175.556V214.444H181.111V208.889Z" fill="white"/>
<path d="M186.667 208.889H181.111V214.444H186.667V208.889Z" fill="white"/>
<path d="M192.222 208.889H186.667V214.444H192.222V208.889Z" fill="white"/>
<path d="M197.778 208.889H192.222V214.444H197.778V208.889Z" fill="white"/>
<path d="M203.333 208.889H197.778V214.444H203.333V208.889Z" fill="white"/>
<path d="M208.889 208.889H203.333V214.444H208.889V208.889Z" fill="white"/>
<path d="M220 208.889H214.444V214.444H220V208.889Z" fill="white"/>
<path d="M242.222 208.889H236.667V214.444H242.222V208.889Z" fill="white"/>
<path d="M247.778 208.889H242.222V214.444H247.778V208.889Z" fill="white"/>
<path d="M258.889 208.889H253.333V214.444H258.889V208.889Z" fill="white"/>
<path d="M264.444 208.889H258.889V214.444H264.444V208.889Z" fill="white"/>
<path d="M31.1111 214.444H25.5555V220H31.1111V214.444Z" fill="white"/>
<path d="M36.6666 214.444H31.1111V220H36.6666V214.444Z" fill="white"/>
<path d="M42.2222 214.444H36.6667V220H42.2222V214.444Z" fill="white"/>
<path d="M47.7778 214.444H42.2222V220H47.7778V214.444Z" fill="white"/>
<path d="M64.4445 214.444H58.8889V220H64.4445V214.444Z" fill="white"/>
<path d="M70 214.444H64.4445V220H70V214.444Z" fill="white"/>
<path d="M75.5556 214.444H70V220H75.5556V214.444Z" fill="white"/>
<path d="M81.1111 214.444H75.5555V220H81.1111V214.444Z" fill="white"/>
<path d="M86.6666 214.444H81.1111V220H86.6666V214.444Z" fill="white"/>
<path d="M92.2222 214.444H86.6667V220H92.2222V214.444Z" fill="white"/>
<path d="M120 214.444H114.444V220H120V214.444Z" fill="white"/>
<path d="M125.556 214.444H120V220H125.556V214.444Z" fill="white"/>
<path d="M131.111 214.444H125.556V220H131.111V214.444Z" fill="white"/>
<path d="M136.667 214.444H131.111V220H136.667V214.444Z" fill="white"/>
<path d="M142.222 214.444H136.667V220H142.222V214.444Z" fill="white"/>
<path d="M153.333 214.444H147.778V220H153.333V214.444Z" fill="white"/>
<path d="M170 214.444H164.444V220H170V214.444Z" fill="white"/>
<path d="M175.556 214.444H170V220H175.556V214.444Z" fill="white"/>
<path d="M197.778 214.444H192.222V220H197.778V214.444Z" fill="white"/>
<path d="M203.333 214.444H197.778V220H203.333V214.444Z" fill="white"/>
<path d="M208.889 214.444H203.333V220H208.889V214.444Z" fill="white"/>
<path d="M214.444 214.444H208.889V220H214.444V214.444Z" fill="white"/>
<path d="M236.667 214.444H231.111V220H236.667V214.444Z" fill="white"/>
<path d="M242.222 214.444H236.667V220H242.222V214.444Z" fill="white"/>
<path d="M247.778 214.444H242.222V220H247.778V214.444Z" fill="white"/>
<path d="M253.333 214.444H247.778V220H253.333V214.444Z" fill="white"/>
<path d="M270 214.444H264.444V220H270V214.444Z" fill="white"/>
<path d="M25.5556 220H20V225.556H25.5556V220Z" fill="white"/>
<path d="M42.2222 220H36.6667V225.556H42.2222V220Z" fill="white"/>
<path d="M47.7778 220H42.2222V225.556H47.7778V220Z" fill="white"/>
<path d="M58.8889 220H53.3333V225.556H58.8889V220Z" fill="white"/>
<path d="M64.4445 220H58.8889V225.556H64.4445V220Z" fill="white"/>
<path d="M70 220H64.4445V225.556H70V220Z" fill="white"/>
<path d="M92.2222 220H86.6667V225.556H92.2222V220Z" fill="white"/>
<path d="M103.333 220H97.7778V225.556H103.333V220Z" fill="white"/>
<path d="M108.889 220H103.333V225.556H108.889V220Z" fill="white"/>
<path d="M114.444 220H108.889V225.556H114.444V220Z" fill="white"/>
<path d="M120 220H114.444V225.556H120V220Z" fill="white"/>
<path d="M131.111 220H125.556V225.556H131.111V220Z" fill="white"/>
<path d="M136.667 220H131.111V225.556H136.667V220Z" fill="white"/>
<path d="M142.222 220H136.667V225.556H142.222V220Z" fill="white"/>
<path d="M147.778 220H142.222V225.556H147.778V220Z" fill="white"/>
<path d="M153.333 220H147.778V225.556H153.333V220Z" fill="white"/>
<path d="M158.889 220H153.333V225.556H158.889V220Z" fill="white"/>
<path d="M164.444 220H158.889V225.556H164.444V220Z" fill="white"/>
<path d="M175.556 220H170V225.556H175.556V220Z" fill="white"/>
<path d="M186.667 220H181.111V225.556H186.667V220Z" fill="white"/>
<path d="M192.222 220H186.667V225.556H192.222V220Z" fill="white"/>
<path d="M203.333 220H197.778V225.556H203.333V220Z" fill="white"/>
<path d="M208.889 220H203.333V225.556H208.889V220Z" fill="white"/>
<path d="M225.556 220H220V225.556H225.556V220Z" fill="white"/>
<path d="M231.111 220H225.556V225.556H231.111V220Z" fill="white"/>
<path d="M236.667 220H231.111V225.556H236.667V220Z" fill="white"/>
<path d="M242.222 220H236.667V225.556H242.222V220Z" fill="white"/>
<path d="M247.778 220H242.222V225.556H247.778V220Z" fill="white"/>
<path d="M253.333 220H247.778V225.556H253.333V220Z" fill="white"/>
<path d="M264.444 220H258.889V225.556H264.444V220Z" fill="white"/>
<path d="M270 220H264.444V225.556H270V220Z" fill="white"/>
<path d="M70 225.556H64.4445V231.111H70V225.556Z" fill="white"/>
<path d="M103.333 225.556H97.7778V231.111H103.333V225.556Z" fill="white"/>
<path d="M114.444 225.556H108.889V231.111H114.444V225.556Z" fill="white"/>
<path d="M120 225.556H114.444V231.111H120V225.556Z" fill="white"/>
<path d="M125.556 225.556H120V231.111H125.556V225.556Z" fill="white"/>
<path d="M131.111 225.556H125.556V231.111H131.111V225.556Z" fill="white"/>
<path d="M136.667 225.556H131.111V231.111H136.667V225.556Z" fill="white"/>
<path d="M158.889 225.556H153.333V231.111H158.889V225.556Z" fill="white"/>
<path d="M170 225.556H164.444V231.111H170V225.556Z" fill="white"/>
<path d="M181.111 225.556H175.556V231.111H181.111V225.556Z" fill="white"/>
<path d="M192.222 225.556H186.667V231.111H192.222V225.556Z" fill="white"/>
<path d="M197.778 225.556H192.222V231.111H197.778V225.556Z" fill="white"/>
<path d="M208.889 225.556H203.333V231.111H208.889V225.556Z" fill="white"/>
<path d="M220 225.556H214.444V231.111H220V225.556Z" fill="white"/>
<path d="M225.556 225.556H220V231.111H225.556V225.556Z" fill="white"/>
<path d="M247.778 225.556H242.222V231.111H247.778V225.556Z" fill="white"/>
<path d="M253.333 225.556H247.778V231.111H253.333V225.556Z" fill="white"/>
<path d="M258.889 225.556H253.333V231.111H258.889V225.556Z" fill="white"/>
<path d="M25.5556 231.111H20V236.667H25.5556V231.111Z" fill="white"/>
<path d="M31.1111 231.111H25.5555V236.667H31.1111V231.111Z" fill="white"/>
<path d="M36.6666 231.111H31.1111V236.667H36.6666V231.111Z" fill="white"/>
<path d="M42.2222 231.111H36.6667V236.667H42.2222V231.111Z" fill="white"/>
<path d="M47.7778 231.111H42.2222V236.667H47.7778V231.111Z" fill="white"/>
<path d="M53.3333 231.111H47.7778V236.667H53.3333V231.111Z" fill="white"/>
<path d="M58.8889 231.111H53.3333V236.667H58.8889V231.111Z" fill="white"/>
<path d="M70 231.111H64.4445V236.667H70V231.111Z" fill="white"/>
<path d="M81.1111 231.111H75.5555V236.667H81.1111V231.111Z" fill="white"/>
<path d="M97.7778 231.111H92.2222V236.667H97.7778V231.111Z" fill="white"/>
<path d="M114.444 231.111H108.889V236.667H114.444V231.111Z" fill="white"/>
<path d="M136.667 231.111H131.111V236.667H136.667V231.111Z" fill="white"/>
<path d="M147.778 231.111H142.222V236.667H147.778V231.111Z" fill="white"/>
<path d="M158.889 231.111H153.333V236.667H158.889V231.111Z" fill="white"/>
<path d="M164.444 231.111H158.889V236.667H164.444V231.111Z" fill="white"/>
<path d="M186.667 231.111H181.111V236.667H186.667V231.111Z" fill="white"/>
<path d="M192.222 231.111H186.667V236.667H192.222V231.111Z" fill="white"/>
<path d="M203.333 231.111H197.778V236.667H203.333V231.111Z" fill="white"/>
<path d="M208.889 231.111H203.333V236.667H208.889V231.111Z" fill="white"/>
<path d="M214.444 231.111H208.889V236.667H214.444V231.111Z" fill="white"/>
<path d="M225.556 231.111H220V236.667H225.556V231.111Z" fill="white"/>
<path d="M236.667 231.111H231.111V236.667H236.667V231.111Z" fill="white"/>
<path d="M247.778 231.111H242.222V236.667H247.778V231.111Z" fill="white"/>
<path d="M253.333 231.111H247.778V236.667H253.333V231.111Z" fill="white"/>
<path d="M264.444 231.111H258.889V236.667H264.444V231.111Z" fill="white"/>
<path d="M25.5556 236.667H20V242.222H25.5556V236.667Z" fill="white"/>
<path d="M58.8889 236.667H53.3333V242.222H58.8889V236.667Z" fill="white"/>
<path d="M92.2222 236.667H86.6667V242.222H92.2222V236.667Z" fill="white"/>
<path d="M97.7778 236.667H92.2222V242.222H97.7778V236.667Z" fill="white"/>
<path d="M103.333 236.667H97.7778V242.222H103.333V236.667Z" fill="white"/>
<path d="M108.889 236.667H103.333V242.222H108.889V236.667Z" fill="white"/>
<path d="M131.111 236.667H125.556V242.222H131.111V236.667Z" fill="white"/>
<path d="M136.667 236.667H131.111V242.222H136.667V236.667Z" fill="white"/>
<path d="M158.889 236.667H153.333V242.222H158.889V236.667Z" fill="white"/>
<path d="M164.444 236.667H158.889V242.222H164.444V236.667Z" fill="white"/>
<path d="M170 236.667H164.444V242.222H170V236.667Z" fill="white"/>
<path d="M175.556 236.667H170V242.222H175.556V236.667Z" fill="white"/>
<path d="M197.778 236.667H192.222V242.222H197.778V236.667Z" fill="white"/>
<path d="M203.333 236.667H197.778V242.222H203.333V236.667Z" fill="white"/>
<path d="M214.444 236.667H208.889V242.222H214.444V236.667Z" fill="white"/>
<path d="M225.556 236.667H220V242.222H225.556V236.667Z" fill="white"/>
<path d="M247.778 236.667H242.222V242.222H247.778V236.667Z" fill="white"/>
<path d="M25.5556 242.222H20V247.778H25.5556V242.222Z" fill="white"/>
<path d="M36.6666 242.222H31.1111V247.778H36.6666V242.222Z" fill="white"/>
<path d="M42.2222 242.222H36.6667V247.778H42.2222V242.222Z" fill="white"/>
<path d="M47.7778 242.222H42.2222V247.778H47.7778V242.222Z" fill="white"/>
<path d="M58.8889 242.222H53.3333V247.778H58.8889V242.222Z" fill="white"/>
<path d="M70 242.222H64.4445V247.778H70V242.222Z" fill="white"/>
<path d="M75.5556 242.222H70V247.778H75.5556V242.222Z" fill="white"/>
<path d="M86.6666 242.222H81.1111V247.778H86.6666V242.222Z" fill="white"/>
<path d="M92.2222 242.222H86.6667V247.778H92.2222V242.222Z" fill="white"/>
<path d="M97.7778 242.222H92.2222V247.778H97.7778V242.222Z" fill="white"/>
<path d="M103.333 242.222H97.7778V247.778H103.333V242.222Z" fill="white"/>
<path d="M120 242.222H114.444V247.778H120V242.222Z" fill="white"/>
<path d="M131.111 242.222H125.556V247.778H131.111V242.222Z" fill="white"/>
<path d="M136.667 242.222H131.111V247.778H136.667V242.222Z" fill="white"/>
<path d="M142.222 242.222H136.667V247.778H142.222V242.222Z" fill="white"/>
<path d="M147.778 242.222H142.222V247.778H147.778V242.222Z" fill="white"/>
<path d="M153.333 242.222H147.778V247.778H153.333V242.222Z" fill="white"/>
<path d="M158.889 242.222H153.333V247.778H158.889V242.222Z" fill="white"/>
<path d="M170 242.222H164.444V247.778H170V242.222Z" fill="white"/>
<path d="M175.556 242.222H170V247.778H175.556V242.222Z" fill="white"/>
<path d="M203.333 242.222H197.778V247.778H203.333V242.222Z" fill="white"/>
<path d="M208.889 242.222H203.333V247.778H208.889V242.222Z" fill="white"/>
<path d="M214.444 242.222H208.889V247.778H214.444V242.222Z" fill="white"/>
<path d="M220 242.222H214.444V247.778H220V242.222Z" fill="white"/>
<path d="M225.556 242.222H220V247.778H225.556V242.222Z" fill="white"/>
<path d="M231.111 242.222H225.556V247.778H231.111V242.222Z" fill="white"/>
<path d="M236.667 242.222H231.111V247.778H236.667V242.222Z" fill="white"/>
<path d="M242.222 242.222H236.667V247.778H242.222V242.222Z" fill="white"/>
<path d="M247.778 242.222H242.222V247.778H247.778V242.222Z" fill="white"/>
<path d="M253.333 242.222H247.778V247.778H253.333V242.222Z" fill="white"/>
<path d="M264.444 242.222H258.889V247.778H264.444V242.222Z" fill="white"/>
<path d="M25.5556 247.778H20V253.333H25.5556V247.778Z" fill="white"/>
<path d="M36.6666 247.778H31.1111V253.333H36.6666V247.778Z" fill="white"/>
<path d="M42.2222 247.778H36.6667V253.333H42.2222V247.778Z" fill="white"/>
<path d="M47.7778 247.778H42.2222V253.333H47.7778V247.778Z" fill="white"/>
<path d="M58.8889 247.778H53.3333V253.333H58.8889V247.778Z" fill="white"/>
<path d="M75.5556 247.778H70V253.333H75.5556V247.778Z" fill="white"/>
<path d="M81.1111 247.778H75.5555V253.333H81.1111V247.778Z" fill="white"/>
<path d="M92.2222 247.778H86.6667V253.333H92.2222V247.778Z" fill="white"/>
<path d="M97.7778 247.778H92.2222V253.333H97.7778V247.778Z" fill="white"/>
<path d="M103.333 247.778H97.7778V253.333H103.333V247.778Z" fill="white"/>
<path d="M108.889 247.778H103.333V253.333H108.889V247.778Z" fill="white"/>
<path d="M120 247.778H114.444V253.333H120V247.778Z" fill="white"/>
<path d="M131.111 247.778H125.556V253.333H131.111V247.778Z" fill="white"/>
<path d="M142.222 247.778H136.667V253.333H142.222V247.778Z" fill="white"/>
<path d="M147.778 247.778H142.222V253.333H147.778V247.778Z" fill="white"/>
<path d="M153.333 247.778H147.778V253.333H153.333V247.778Z" fill="white"/>
<path d="M158.889 247.778H153.333V253.333H158.889V247.778Z" fill="white"/>
<path d="M164.444 247.778H158.889V253.333H164.444V247.778Z" fill="white"/>
<path d="M170 247.778H164.444V253.333H170V247.778Z" fill="white"/>
<path d="M186.667 247.778H181.111V253.333H186.667V247.778Z" fill="white"/>
<path d="M192.222 247.778H186.667V253.333H192.222V247.778Z" fill="white"/>
<path d="M197.778 247.778H192.222V253.333H197.778V247.778Z" fill="white"/>
<path d="M220 247.778H214.444V253.333H220V247.778Z" fill="white"/>
<path d="M236.667 247.778H231.111V253.333H236.667V247.778Z" fill="white"/>
<path d="M258.889 247.778H253.333V253.333H258.889V247.778Z" fill="white"/>
<path d="M25.5556 253.333H20V258.889H25.5556V253.333Z" fill="white"/>
<path d="M36.6666 253.333H31.1111V258.889H36.6666V253.333Z" fill="white"/>
<path d="M42.2222 253.333H36.6667V258.889H42.2222V253.333Z" fill="white"/>
<path d="M47.7778 253.333H42.2222V258.889H47.7778V253.333Z" fill="white"/>
<path d="M58.8889 253.333H53.3333V258.889H58.8889V253.333Z" fill="white"/>
<path d="M75.5556 253.333H70V258.889H75.5556V253.333Z" fill="white"/>
<path d="M81.1111 253.333H75.5555V258.889H81.1111V253.333Z" fill="white"/>
<path d="M86.6666 253.333H81.1111V258.889H86.6666V253.333Z" fill="white"/>
<path d="M92.2222 253.333H86.6667V258.889H92.2222V253.333Z" fill="white"/>
<path d="M97.7778 253.333H92.2222V258.889H97.7778V253.333Z" fill="white"/>
<path d="M103.333 253.333H97.7778V258.889H103.333V253.333Z" fill="white"/>
<path d="M108.889 253.333H103.333V258.889H108.889V253.333Z" fill="white"/>
<path d="M114.444 253.333H108.889V258.889H114.444V253.333Z" fill="white"/>
<path d="M120 253.333H114.444V258.889H120V253.333Z" fill="white"/>
<path d="M142.222 253.333H136.667V258.889H142.222V253.333Z" fill="white"/>
<path d="M147.778 253.333H142.222V258.889H147.778V253.333Z" fill="white"/>
<path d="M153.333 253.333H147.778V258.889H153.333V253.333Z" fill="white"/>
<path d="M170 253.333H164.444V258.889H170V253.333Z" fill="white"/>
<path d="M192.222 253.333H186.667V258.889H192.222V253.333Z" fill="white"/>
<path d="M197.778 253.333H192.222V258.889H197.778V253.333Z" fill="white"/>
<path d="M208.889 253.333H203.333V258.889H208.889V253.333Z" fill="white"/>
<path d="M220 253.333H214.444V258.889H220V253.333Z" fill="white"/>
<path d="M231.111 253.333H225.556V258.889H231.111V253.333Z" fill="white"/>
<path d="M247.778 253.333H242.222V258.889H247.778V253.333Z" fill="white"/>
<path d="M258.889 253.333H253.333V258.889H258.889V253.333Z" fill="white"/>
<path d="M264.444 253.333H258.889V258.889H264.444V253.333Z" fill="white"/>
<path d="M25.5556 258.889H20V264.444H25.5556V258.889Z" fill="white"/>
<path d="M58.8889 258.889H53.3333V264.444H58.8889V258.889Z" fill="white"/>
<path d="M86.6666 258.889H81.1111V264.444H86.6666V258.889Z" fill="white"/>
<path d="M92.2222 258.889H86.6667V264.444H92.2222V258.889Z" fill="white"/>
<path d="M97.7778 258.889H92.2222V264.444H97.7778V258.889Z" fill="white"/>
<path d="M108.889 258.889H103.333V264.444H108.889V258.889Z" fill="white"/>
<path d="M114.444 258.889H108.889V264.444H114.444V258.889Z" fill="white"/>
<path d="M125.556 258.889H120V264.444H125.556V258.889Z" fill="white"/>
<path d="M131.111 258.889H125.556V264.444H131.111V258.889Z" fill="white"/>
<path d="M136.667 258.889H131.111V264.444H136.667V258.889Z" fill="white"/>
<path d="M158.889 258.889H153.333V264.444H158.889V258.889Z" fill="white"/>
<path d="M164.444 258.889H158.889V264.444H164.444V258.889Z" fill="white"/>
<path d="M181.111 258.889H175.556V264.444H181.111V258.889Z" fill="white"/>
<path d="M208.889 258.889H203.333V264.444H208.889V258.889Z" fill="white"/>
<path d="M214.444 258.889H208.889V264.444H214.444V258.889Z" fill="white"/>
<path d="M231.111 258.889H225.556V264.444H231.111V258.889Z" fill="white"/>
<path d="M242.222 258.889H236.667V264.444H242.222V258.889Z" fill="white"/>
<path d="M247.778 258.889H242.222V264.444H247.778V258.889Z" fill="white"/>
<path d="M253.333 258.889H247.778V264.444H253.333V258.889Z" fill="white"/>
<path d="M25.5556 264.444H20V270H25.5556V264.444Z" fill="white"/>
<path d="M31.1111 264.444H25.5555V270H31.1111V264.444Z" fill="white"/>
<path d="M36.6666 264.444H31.1111V270H36.6666V264.444Z" fill="white"/>
<path d="M42.2222 264.444H36.6667V270H42.2222V264.444Z" fill="white"/>
<path d="M47.7778 264.444H42.2222V270H47.7778V264.444Z" fill="white"/>
<path d="M53.3333 264.444H47.7778V270H53.3333V264.444Z" fill="white"/>
<path d="M58.8889 264.444H53.3333V270H58.8889V264.444Z" fill="white"/>
<path d="M70 264.444H64.4445V270H70V264.444Z" fill="white"/>
<path d="M97.7778 264.444H92.2222V270H97.7778V264.444Z" fill="white"/>
<path d="M103.333 264.444H97.7778V270H103.333V264.444Z" fill="white"/>
<path d="M108.889 264.444H103.333V270H108.889V264.444Z" fill="white"/>
<path d="M114.444 264.444H108.889V270H114.444V264.444Z" fill="white"/>
<path d="M131.111 264.444H125.556V270H131.111V264.444Z" fill="white"/>
<path d="M136.667 264.444H131.111V270H136.667V264.444Z" fill="white"/>
<path d="M153.333 264.444H147.778V270H153.333V264.444Z" fill="white"/>
<path d="M158.889 264.444H153.333V270H158.889V264.444Z" fill="white"/>
<path d="M164.444 264.444H158.889V270H164.444V264.444Z" fill="white"/>
<path d="M175.556 264.444H170V270H175.556V264.444Z" fill="white"/>
<path d="M192.222 264.444H186.667V270H192.222V264.444Z" fill="white"/>
<path d="M203.333 264.444H197.778V270H203.333V264.444Z" fill="white"/>
<path d="M214.444 264.444H208.889V270H214.444V264.444Z" fill="white"/>
<path d="M220 264.444H214.444V270H220V264.444Z" fill="white"/>
<path d="M225.556 264.444H220V270H225.556V264.444Z" fill="white"/>
<path d="M231.111 264.444H225.556V270H231.111V264.444Z" fill="white"/>
<path d="M247.778 264.444H242.222V270H247.778V264.444Z" fill="white"/>
<path d="M270 264.444H264.444V270H270V264.444Z" fill="white"/>
</svg>
