<svg width="335" height="35" viewBox="0 0 335 35" fill="none" xmlns="http://www.w3.org/2000/svg">
<path d="M0.28 30.44L6.16 4.96L11.84 0.599998H30.32L34.68 5.36L28.8 30.84L23.12 34.92H4.64L0.28 30.44ZM16.52 11.8L13.72 23.96H18.4L21.2 11.8H16.52ZM63.4972 0.639999L67.3772 4.88L61.6572 29.8L56.0572 34.88H32.5772L34.9772 24.48H50.8172L51.3372 22.16H38.3772L35.4572 18.92L38.7372 4.8L43.3772 0.639999H63.4972ZM47.9772 13.8H53.2972L54.0172 10.6H48.6972L47.9772 13.8ZM64.3944 34.8L66.8344 24.32H82.3144L82.8744 21.88H67.4744L72.3944 0.519999H99.9944L97.6344 10.72H81.7544L81.2344 13H93.5144L96.9544 16.76L93.5944 31.28L89.2744 34.8H64.3944ZM96.5819 34.8L99.0219 24.32H114.502L115.062 21.88H99.6619L104.582 0.519999H132.182L129.822 10.72H113.942L113.422 13H125.702L129.142 16.76L125.782 31.28L121.462 34.8H96.5819ZM134.649 16H150.209L148.049 25.2H132.489L134.649 16ZM152.272 30.44L158.152 4.96L163.832 0.599998H182.312L186.672 5.36L180.792 30.84L175.112 34.92H156.632L152.272 30.44ZM168.512 11.8L165.712 23.96H170.392L173.192 11.8H168.512ZM219.129 0.719998L216.489 12.08L203.169 34.96H188.849L189.209 33.36L201.369 13.28L201.569 12.48H188.649L191.369 0.719998H219.129ZM228.656 0.759998H240.656L232.816 34.64H218.256L222.976 14.16H219.696L221.656 5.8L228.656 0.759998ZM268.007 0.479999L270.527 4.24L267.767 16.28L259.207 23.64L259.127 24.12H267.007L264.527 34.8H237.087L238.847 27.12L254.127 13.96L254.487 12.52H242.607L245.367 0.479999H268.007ZM268.105 34.88L270.545 24.32H284.865L285.465 21.76H271.905L273.825 13.44H287.385L287.945 10.92H273.825L276.225 0.559998H302.785L299.545 14.68L296.745 16.96L298.945 19.84L296.425 30.8L292.065 34.88H268.105ZM300.436 30.44L306.316 4.96L311.996 0.599998H330.476L334.836 5.36L328.956 30.84L323.276 34.92H304.796L300.436 30.44ZM316.676 11.8L313.876 23.96H318.556L321.356 11.8H316.676Z" fill="white"/>
</svg>
