<svg width="323" height="39" viewBox="0 0 323 39" fill="none" xmlns="http://www.w3.org/2000/svg">
<path d="M30.96 2.48L33.48 6.24L30.72 18.28L22.16 25.64L22.08 26.12H29.96L27.48 36.8H0.04L1.8 29.12L17.08 15.96L17.44 14.52H5.56L8.32 2.48H30.96ZM66.2984 2.52L61.6584 22.56H63.9384L61.3384 33.8H59.0584L58.2984 37.08H44.7384L45.4984 33.8H31.2184L33.5784 23.52L43.8184 2.52H66.2984ZM50.4984 13.36L45.4984 24.04H49.4584L51.9384 13.36H50.4984ZM97.3325 1.68H111.133L102.613 38.48H85.8525L86.4925 35.72H77.8525L83.8125 9.88L89.2125 4.2H94.8125L88.6125 31.12L90.8525 29.72L97.3325 1.68ZM118.053 4.2L120.813 9.88L114.893 35.56H105.213L112.453 4.2H118.053ZM160.493 9.8H154.733L154.453 11H160.453L158.613 18.88H157.373L157.093 19.96H158.493L156.573 28.36H155.173L152.933 38.12H140.653L142.133 31.6L144.333 30.2L144.773 28.36H133.973L135.893 19.96H146.693L146.933 18.88H136.293L138.093 11H143.253L143.533 9.8H138.533L140.293 2.24H145.293L145.613 0.919998H156.773L156.453 2.24H162.213L160.493 9.8ZM125.453 1.72H139.093L130.693 38.12H117.052L125.453 1.72ZM130.733 11.08H129.453L128.213 16.4H129.493L130.733 11.08ZM125.133 29.76H126.413L127.813 23.72H126.533L125.133 29.76ZM133.853 29.36H141.653L139.853 37.2H134.493L132.493 35.24L133.853 29.36ZM189.493 9.72H191.693L191.893 8.84H188.773L187.093 16.2H199.453L196.573 28.56L195.013 29.92L196.173 31.72L194.693 38.12H190.613L189.093 36.16L186.813 38.2H182.013L183.533 31.56L185.213 30.04L184.213 28.56L185.453 23.28H189.813L190.813 24.84L191.373 22.4H184.813L181.893 35L178.493 38.2H173.293L181.693 1.76H202.613L200.132 12.56L197.133 15.36H188.213L189.493 9.72ZM165.733 1.84H180.653L172.253 38.32H164.653L166.173 31.88L167.213 31.04L167.973 27.76H166.133L163.693 38.32H157.332L165.733 1.84ZM171.613 10.76H170.213L169.653 13.2H171.053L171.613 10.76ZM167.733 21.52H169.133L169.613 19.44H168.213L167.733 21.52ZM242.293 2.12L239.813 12.76L237.013 14.52L239.373 16.32L238.213 21.32H231.813L228.693 19L225.853 20.64H229.013L228.613 22.24H237.853L234.173 38.12H223.013L224.213 32.96L225.853 32.08L226.493 29.16H224.933L220.973 38.12H211.253L211.893 35.4L216.253 29.16H215.053L213.733 30.96H211.013L213.373 20.88H212.533L208.573 38.12H197.772L198.772 33.76L202.173 31.2L202.533 29.68L199.493 31.88H198.092L200.173 22.84L203.373 20.88H200.773L202.413 13.92H203.812L203.173 11.8L203.613 9.88H209.453L209.893 11.24L211.293 9.28L211.413 8.8H203.773L205.453 1.56H220.933L218.733 11.08L216.573 13.92H219.372L218.853 16.12L221.853 14.6L219.413 12.76L220.093 9.88H228.013L229.293 10.92L231.533 9.56L231.653 8.92H220.333L221.533 3.68L224.693 0.879998H232.533L232.213 2.12H242.293ZM217.453 22.24H219.573L219.813 21.32H217.653L217.453 22.24ZM260.213 23.84L259.173 28.88H239.613L240.773 23.84H246.133L246.333 23H241.213L242.213 18.72H247.333L247.733 17.08L246.853 17.96H242.093L243.013 14L244.453 12.64H243.373L244.573 7.52H249.653L249.853 6.68H245.133L246.213 2H250.933L251.213 0.799999H260.333L260.053 2H265.173L264.093 6.68H258.973L258.773 7.52H264.013L262.853 12.64H259.253L259.053 13.44H263.013L262.013 17.88H256.533L256.333 18.72H261.333L260.333 23H255.333L255.133 23.84H260.213ZM282.213 2.52L278.253 19.8H279.333L277.253 28.88H268.573L269.613 24.4L268.693 23.24L266.933 28.88H259.932L261.173 23.08L263.413 18L262.853 17.36L264.213 11.56H265.213L265.493 10.48H264.093L265.933 2.52H267.293L267.693 0.839999H277.213L276.813 2.52H282.213ZM271.133 13.36L271.973 14.32L272.853 10.48H271.813L271.133 13.36ZM252.133 12.64L251.133 13.64H253.093L253.333 12.64H252.133ZM241.333 29.76H248.253L246.333 38.2H237.132L238.612 31.92L241.333 29.76ZM249.293 29.76H257.413L255.453 38.2H247.333L249.293 29.76ZM258.413 29.76H266.853L264.893 38.2H256.453L258.413 29.76ZM267.813 29.76H273.813L276.053 31.92L274.613 38.2H265.853L267.813 29.76ZM311.093 23.6L313.013 21.76H318.053L316.853 26.96L314.653 28.96L316.093 31.2L314.493 38.24H310.293L308.413 35.28L307.733 38.24H296.133L296.653 36.2L298.573 34.64L301.733 20.84H294.653L298.613 3.8L302.093 0.759997H311.213L310.853 2.28H322.253L317.973 20.84H311.733L311.093 23.6ZM293.653 21L291.893 28.6H279.373L281.533 19.28L284.493 16.44L284.533 16.24H282.413L284.533 7.16L290.373 1.56H298.213L296.893 7.12L292.973 10.68L292.893 10.96H296.053L294.413 18.16L291.173 20.76L291.093 21H293.653ZM312.013 9.36H305.453L305.213 10.44H311.773L312.013 9.36ZM304.413 13.92L304.173 15.04H310.693L310.973 13.92H304.413ZM300.653 21.76L297.813 34.12L293.253 38.12H290.613L292.533 29.52L294.653 28.04V27.76H292.973L294.373 21.76H300.653ZM280.093 29.56H283.413L281.452 38.12H276.932L278.532 31.24L280.093 29.56ZM284.213 29.56H287.853L285.853 38.12H282.213L284.213 29.56ZM288.653 29.56H291.693L289.733 38.12H286.653L288.653 29.56Z" fill="white"/>
</svg>
