<svg width="506" height="39" viewBox="0 0 506 39" fill="none" xmlns="http://www.w3.org/2000/svg">
<path d="M18.1 26.72V29H10.54V9.8H12.78V8.44H21.18L22.46 9.8H22.78L24.94 7.6H10.86V1.28H35.82V7.24L33.58 9.8H36.42V29H28.3V26.72H26.54V28.68H19.82V26.72H18.1ZM9.54 2V9.96H0.3V2H9.54ZM9.54 30H36.9V38.24H9.1L7.14 36.48L5.26 38.24H0.26V11.08H9.54V30ZM19.82 16.8V15.52H18.1V16.8H19.82ZM28.3 16.8V15.52H26.54V16.8H28.3ZM18.1 22.56H19.82V21.28H18.1V22.56ZM26.54 22.56H28.3V21.28H26.54V22.56ZM76.98 2.16V8.28H74.86L76.58 9.92V12.04H68.22L66.5 10.04L65.26 12.04H64.42V12.96H76.86V22.96H75.02V28.2H53.66V29.16H75.82V38.12H42.14V23.08H40.34V12.96H51.42V12.04H49.22L47.58 10.12L46.38 12.04H39.94V6.36L43.1 1.12H51.14V2.16H57.86V8.28H55.86L57.46 9.96V11.32H58.66V6.36L61.82 1.12H70.02V2.16H76.98ZM66.9 19.88V18.92H49.66V19.88H66.9ZM63.42 24.84V23.88H53.66V24.84H63.42ZM64.22 32.76H53.66V33.8H64.22V32.76ZM109.14 17.96V20L109.42 20.44L110.98 19H116.94V26.32L114.86 28.24L117.02 31.32V38.4H107.42L105.42 35.68L102.98 38.08H95.18V30.56L98.98 26.84L97.58 24.92V1.12H109.14V9.16H117.02V17.96H109.14ZM96.34 24.8L94.06 25.6V38.2H80.02V34.76L82.46 32.84V29.56L81.5 29.88H79.82V19.76L82.46 18.88V13H79.9V3.48H82.46V1.32H94.06V3.48H96.18V13H94.06V15.08L94.86 14.8H96.34V24.8ZM116.3 1.84V8.16H110.22V1.84H116.3ZM157.06 11.92H148.9V38.56H137.58V35.88L139.3 31.2V11.92H137.98V30.8L135.18 38.32H125.5V36.6H120.06V17.48L122.78 13H127.34V31.52L128.54 28.36V11.92H120.06V2.56H131.94V0.719998H145.18V2.56H157.06V11.92ZM157.02 17.48L157.18 36.6H150.06V13H154.3L157.02 17.48ZM195.46 20.88H188.82V21.8H196.94V28.32H192.94L196.86 30.84V37.84H191.9L188.82 33.96V38.16H179.54V34.4L176.9 37.84H171.98V30.84L175.78 28.32H172.02V21.8H179.54V20.88H172.06V14.72H173.38L172.42 13.48V10.16H176.58V14.72H177.42V9.28H172.1V3.84L174.94 1.04H179.82V2.92H183.62V17.12L181.02 20.08H187.7V19.24H184.42V2.92H187.7V1.08H195.46V2.92H196.82V10.4H195.46V12.08H197.02V19.24H195.46V20.88ZM159.5 10.4L165.22 1.4H171.14V38.16H161.54V24.12H159.5V10.4ZM188.7 9.96V12.52H189.78V9.96H188.7ZM211.9 24V12.64H225.42V24L220.3 31.36H215.02L217.26 24H211.9ZM261.14 14.24H277.14V24.48H261.14V38.28H247.02V24.48H240.26V14.24H247.02V0.919998H261.14V3.56H275.54V12.24H261.14V14.24ZM262.98 26.24H270.86L275.46 29.6V36H262.98V26.24ZM311.14 28.24H317.1V38.2H294.1V28.24H299.58V25.2H294.26V16.16H299.58V13.24H294.1V3.44H299.58V0.719998H311.14V3.44H316.94V13.24H311.14V16.16H316.54V25.2H311.14V28.24ZM279.7 10.4L284.3 1.4H292.82V38.28H281.9V24.12H279.7V10.4ZM357.02 18.72H349.14V21.68L351.54 19.84H356.42V28L354.66 29.36L357.02 32.68V38.28H347.26L345.54 35.92L342.78 38.08H336.3V30.76L339.86 28.12L338.66 26.48V18.72H335.06V20.08L337.3 20V27.52L335.06 28.36V38.12H320.7V33.6L324.06 32.08V30.76L321.74 31.64H320.02V22.84L324.06 21.52V19.12H320.06V10.12H324.06V9H320.98V1.56H337.34V7.48L335.06 8.32V10.12H338.66V1.12H349.14V10.12H357.02V18.72ZM356.18 1.84V9.08H350.22V1.84H356.18ZM359.7 10.4L363.46 1.4H370.18V38.16H361.26V24.12H359.7V10.4ZM383.06 23.52H379.98V38.16H371.14V1.44H383.06V23.52ZM384.1 1.44H396.9V38.16H383.02V34.12L387.98 29.88V23.52H384.1V1.44ZM378.18 9.4H376.7V10.72H378.18V9.4ZM390.5 9.4H389.02V10.72H390.5V9.4ZM376.7 15.36V16.68H378.18V15.36H376.7ZM389.02 16.68H390.5V15.36H389.02V16.68ZM428.66 24.2L437.14 29.8V38H429.54L424.46 33.04V38.12H412.3V33.16L407.34 38H400.14V29.8L408.42 24.32L407.74 23.64H406.86L404.1 25.68H400.54V17.48L402.82 15.84V13.24H411.22V15.44L412.3 16.48V12.12H400.22V2.88H412.3V0.799999H424.46V2.88H436.9V12.12H424.46V16.44L425.5 15.44V13.24H434.26V15.84L436.7 17.48V25.68H433.02L430.38 23.64H429.26L428.66 24.2ZM458.1 8L456.82 10.32H458.18V38.2H448.94V33.8L450.34 32.24V30.96H448.3L447.1 38.2H440.02V33.8L441.14 28.96V15.4H440.02V6.2L443.14 0.919998H449.14V2.16H458.1V8ZM459.06 1.36H477.22V17.28H467.78V13.92L468.98 12.56V9.88H467.74L466.3 17.28H459.1V14.12L460.5 9.88H459.06V1.36ZM449.9 9.24H447.3L446.66 10.32H449.5L449.9 9.6V9.24ZM446.82 19.08H447.82V16.88H446.82V19.08ZM451.78 19.08V16.88H450.78V19.08H451.78ZM472.9 27.28V28.92H477.06V36.52H472.9V38.24H463.22V36.52H459.14V28.92H463.22V27.28H459.18V21.28L460.94 18.16H464.78V19.84H465.94V18.2H472.9V19.84H477.02V27.28H472.9ZM446.82 22.76V24.72H447.82V22.76H446.82ZM450.78 24.72H451.78V22.76H450.78V24.72ZM492.02 2.32H505.42V20.52L501.7 25.48H492.02V2.32ZM492.26 27.84H504.42V37.52H492.26V27.84Z" fill="white"/>
</svg>
