<svg width="56" height="76" viewBox="0 0 56 76" fill="none" xmlns="http://www.w3.org/2000/svg">
<path d="M33.2448 25.4595H22.7356V35.2661H33.2448V25.4595Z" fill="#E8BF93"/>
<path d="M45.2911 53.7871L44.3537 54.3346L44.4118 55.8112L44.5943 60.1247L44.8597 66.5949H11.123L11.3802 60.2823L11.5709 55.8112L11.629 54.3346L10.6253 53.7457L3.94763 49.8552L10.8907 34.4842C11.3221 33.8869 11.8696 33.4224 12.4834 33.0989L12.4917 33.0906C12.7489 32.9496 13.0226 32.8334 13.3047 32.7505C13.7028 32.5846 14.1259 32.4021 14.5655 32.2196L14.7314 32.1532C15.0135 32.0371 15.3038 31.9293 15.5941 31.8131C16.6393 31.3984 17.7343 30.9753 18.738 30.5937C20.9446 29.7642 22.7363 29.1172 22.7363 29.1172C22.7363 31.1329 25.3659 32.1449 27.9872 32.1449C30.6168 32.1449 33.2464 31.1329 33.2464 29.1172C33.2464 29.1172 35.0382 29.7642 37.2364 30.5937C38.2484 30.9753 39.3351 31.3984 40.3803 31.8131C40.6789 31.9293 40.9609 32.0371 41.243 32.1532L41.4089 32.2196C41.8485 32.4021 42.2716 32.5846 42.6698 32.7505C42.9518 32.8334 43.2255 32.9496 43.491 33.0906L43.4993 33.0989C44.1048 33.4224 44.6606 33.8869 45.092 34.4842L52.0268 49.8552L45.2911 53.7871Z" fill="#EDEDED"/>
<path d="M11.6292 54.3344L11.3388 60.2821L11.1978 60.2489L0.339355 57.8433L3.94778 49.855L10.6254 53.7454L11.6292 54.3344Z" fill="#FFD2A1"/>
<path d="M55.6353 57.8433L50.5752 58.8885L44.5943 60.1244L44.4118 55.8109L44.3538 54.3344L45.2911 53.7869L52.0268 49.855L55.6353 57.8433Z" fill="#FFD2A1"/>
<path d="M44.8597 66.5947H11.123L11.3802 60.282L11.5627 55.8109H11.6042C14.2255 55.6782 16.2163 53.4136 16.0172 50.8006L15.6522 46.1138L14.5656 32.2194L14.7315 32.153C15.0135 32.0369 15.3038 31.929 15.5942 31.8129C16.6394 31.3981 17.7343 30.9751 18.7381 30.5935L19.9409 46.0475H36.0419L37.2364 30.5935C38.2484 30.9751 39.3351 31.3981 40.3803 31.8129C40.6789 31.929 40.961 32.0369 41.243 32.153L41.4089 32.2194L40.4384 44.6622L39.9656 50.8006C39.7582 53.4136 41.7573 55.6782 44.3703 55.8109H44.4201L44.5943 60.1244L44.8597 66.5947Z" fill="#3EA2EE"/>
<path d="M44.4118 55.8112H44.3704C41.7574 55.6784 39.7582 53.4138 39.9656 50.8009L40.4384 44.6624C40.4716 44.4467 40.5131 44.2228 40.5463 44.0071C41.0854 49.1252 42.8855 52.1364 45.2911 53.7871L44.3538 54.3346L44.4118 55.8112ZM11.6042 55.8112H11.571L11.6291 54.3346L10.6254 53.7457C13.0061 52.0949 14.7896 49.092 15.3205 44.0071C15.4366 44.7205 15.5444 45.4173 15.6523 46.1141L16.0173 50.8009C16.2164 53.4138 14.2255 55.6784 11.6042 55.8112Z" fill="#D8D8D8"/>
<path d="M11.3387 60.282L11.1977 60.2488L11.2225 60.1493L5.29975 58.9216L4.13013 55.562C6.39472 55.5537 8.64273 55.0975 10.5257 53.8117H10.534L10.6253 53.7454L11.629 54.3343L11.3387 60.282Z" fill="#E8C093"/>
<path d="M44.5943 60.1246L44.4201 55.8111H44.4118L44.3538 54.3346L45.2911 53.7871L45.3326 53.812H45.3409C47.2239 55.0978 49.4719 55.554 51.7365 55.5623L50.5752 58.8887L44.5943 60.1246Z" fill="#E8C093"/>
<path d="M44.8597 66.5949H11.123L11.3802 60.2822L11.5627 55.8111H11.6042C14.2255 55.6784 16.2163 53.4138 16.0172 50.8008L15.6522 46.114C16.8882 54.2101 17.9002 60.9707 27.8213 61.0039H28.037C38.5554 60.9707 39.0697 53.3806 40.4384 44.6624L39.9656 50.8008C39.7582 53.4138 41.7573 55.6784 44.3703 55.8111H44.4201L44.5943 60.1246L44.8597 66.5949Z" fill="#3EA2EE"/>
<path d="M27.9898 2.12012C22.583 2.13256 18.2935 5.71775 18.7356 12.1241C18.7871 12.8666 18.875 13.5783 19.026 14.324C17.8182 13.6504 16.7713 14.8466 17.206 16.6666C17.5129 17.9499 18.1492 19.6711 18.8634 19.9266C19.7186 20.2319 19.9749 19.6985 20.0247 19.6819C20.4171 21.5317 20.5822 23.1841 21.2483 24.163C22.0371 25.3201 22.6444 26.1911 23.2093 26.8465C24.4909 28.3313 25.5485 28.6946 27.9757 28.6946H28.0039C30.4311 28.6946 31.4896 28.3313 32.7703 26.8465C33.3352 26.1911 33.9433 25.3201 34.7313 24.163C35.3983 23.1841 35.5625 21.5317 35.9557 19.6819C36.0046 19.6985 36.261 20.2319 37.117 19.9266C37.8304 19.6711 38.4675 17.9499 38.7736 16.6666C39.2083 14.8466 38.1614 13.6504 36.9536 14.324C37.1046 13.5783 37.1934 12.8666 37.244 12.1241C37.6861 5.71775 33.3975 2.13256 27.9898 2.12012Z" fill="#FFD2A1"/>
<path d="M37.6305 14.1067L37.6247 14.1299V14.1357C36.806 14.5887 36.3755 15.1876 36.0503 17.6629C35.4572 17.8255 35.2017 17.8603 34.6608 18.0411C34.8881 17.1461 35.0739 16.3091 35.2249 15.5302C35.8703 12.1889 35.8761 9.86372 35.5327 8.24283C35.0797 6.09769 34.0279 5.18024 33.0632 4.74972C32.4236 4.4652 31.8247 4.38971 31.4647 4.32003C30.3257 4.09275 25.653 4.09275 24.5141 4.32003C23.619 4.50004 21.196 4.67424 20.4461 8.24283C20.33 8.78285 20.2545 9.4108 20.2313 10.1258C20.179 11.5319 20.3242 13.293 20.7481 15.5011C20.9048 16.2917 21.0915 17.1345 21.318 18.0411C20.7771 17.8603 20.5216 17.8255 19.9343 17.6629C19.6091 15.1876 19.1736 14.5887 18.3599 14.1357V14.1299L18.3541 14.1067C17.9468 11.6887 17.8887 9.81146 18.1799 8.24283C18.476 6.58628 19.1562 5.27316 20.2139 4.02887C23.8978 -0.317812 33.2722 0.374008 35.7658 4.02887C36.6716 5.35445 37.3518 6.65015 37.6944 8.24283C38.0262 9.80565 38.0378 11.6538 37.6305 14.1067Z" fill="#936037"/>
<path d="M31.2142 2.12275C31.901 2.12441 32.6841 2.17086 33.1154 2.70508C33.6505 3.36786 33.3153 4.35665 32.8749 5.08662C31.0914 8.04221 28.2992 10.7896 24.3606 10.9256C24.7912 10.5897 25.5286 9.92024 25.6705 9.29063C23.5494 10.2438 21.1039 10.4561 18.851 9.88209C19.5419 7.95013 20.2819 5.94352 21.7709 4.53251C22.9811 3.38528 24.5937 2.73659 26.2312 2.42552C27.8687 2.11528 29.5477 2.1186 31.2142 2.12275Z" fill="#936037"/>
<path d="M16.6138 30.6093L16.5889 30.6558V30.5911L16.6138 30.6093Z" fill="#3C3C3B"/>
<path d="M39.2083 30.6093L39.2323 30.6558V30.5911L39.2083 30.6093Z" fill="#3C3C3B"/>
<path d="M27.8711 27.1924L27.8313 27.1932H27.9109L27.8711 27.1924Z" fill="#FFD2A1"/>
<path d="M28.0461 17.3485C25.6429 17.3485 23.2108 16.7429 20.7479 15.5012C20.4368 13.8803 20.2759 12.5 20.2328 11.3245C21.6529 11.1072 23.0631 10.9446 24.4692 10.8384C24.431 10.8699 24.3945 10.899 24.3605 10.9255C24.8549 10.9081 25.331 10.85 25.7898 10.7555C26.6541 10.7123 27.5168 10.6899 28.3812 10.6899C30.8167 10.6899 33.2596 10.8641 35.7498 11.2217C35.7117 12.427 35.5491 13.8504 35.2248 15.5302C32.8614 16.7322 30.4683 17.3485 28.0461 17.3485Z" fill="#E8C093"/>
<path d="M35.225 15.5305C35.5493 13.8507 35.7119 12.4272 35.7501 11.2219C36.4684 11.3248 37.1909 11.4434 37.9176 11.577C37.8778 12.3459 37.7841 13.1837 37.6306 14.107L37.5958 14.1302H37.5899C36.8002 14.6644 36.0213 15.1298 35.225 15.5305ZM20.7481 15.5014C19.9692 15.1124 19.1911 14.6528 18.4006 14.1302H18.3948L18.3541 14.107C18.2073 13.2377 18.1069 12.4388 18.0505 11.6989C18.7813 11.5595 19.5088 11.4351 20.233 11.3248C20.2761 12.5002 20.4371 13.8805 20.7481 15.5014Z" fill="#875934"/>
<path d="M24.3606 10.9257C24.3946 10.8991 24.4311 10.8701 24.4693 10.8386C24.9097 10.8054 25.3502 10.778 25.7899 10.7556C25.3311 10.8502 24.855 10.9082 24.3606 10.9257Z" fill="#875934"/>
<path d="M18.0421 11.59C18.0354 11.4946 18.0296 11.4 18.0247 11.3071L18.0421 11.59Z" fill="#875934"/>
<path d="M29.4157 0H26.5647C21.7576 0 17.8605 3.89625 17.8605 8.70333L18.0496 11.6987C24.7538 10.4254 31.1395 10.3267 37.9407 11.5809L38.1199 8.70333C38.1199 3.89625 34.2228 0 29.4157 0Z" fill="#3EA2EE"/>
<path d="M19.2034 10.2288L19.1022 8.62538C19.1038 4.81456 22.0901 1.62174 25.886 1.27832C23.2083 2.90335 21.5534 5.2567 22.4941 8.72658C21.3328 8.84935 20.3639 9.33048 19.2034 10.2288Z" fill="#7CC6FF"/>
<path d="M18.7032 11.4151C18.9289 12.1691 18.9164 11.965 19.0226 12.2122C19.6738 13.7377 21.2955 14.6709 22.7953 14.3831C23.7036 14.2089 24.5082 13.6498 25.3618 13.2641C26.1955 12.8866 27.0897 12.6784 27.9898 12.6394C28.8898 12.6784 29.784 12.8866 30.6185 13.2641C31.4721 13.6498 32.2759 14.2089 33.1842 14.3831C34.684 14.6709 36.3066 13.7377 36.9577 12.2122C37.0631 11.965 37.0515 12.1691 37.2763 11.4151C34.3373 7.8216 21.7609 7.83985 18.7032 11.4151Z" fill="#3EA2EE"/>
<path fill-rule="evenodd" clip-rule="evenodd" d="M24.1757 54.2981L24.1698 54.2699C24.0338 53.5158 23.2142 52.9683 22.3739 53.0812C19.6655 53.4694 17.07 54.0923 14.6129 54.9127V57.8409C17.2276 56.911 20.0181 56.2159 22.9538 55.8186C23.7493 55.719 24.3125 55.0529 24.1757 54.2981Z" fill="#C1BEA2"/>
<path d="M19.4523 42.6265V69.7617C19.4523 71.1636 18.3158 72.3009 16.9139 72.3009H8.49097V75.76H18.2238C20.8127 75.76 22.9122 73.6613 22.9122 71.0724V42.6265H19.4523Z" fill="#706F6F"/>
<path d="M18.8907 42.9949C19.2233 42.9949 19.4929 43.2645 19.4929 43.5971V47.8136C19.4929 48.1462 19.2233 48.4158 18.8907 48.4158C18.558 48.4158 18.2885 48.1462 18.2885 47.8136V43.5971C18.2885 43.2645 18.558 42.9949 18.8907 42.9949Z" fill="#C0C0BE"/>
<path d="M23.4738 42.9949C23.8065 42.9949 24.076 43.2645 24.076 43.5971V47.8136C24.076 48.1462 23.8065 48.4158 23.4738 48.4158C23.1412 48.4158 22.8716 48.1462 22.8716 47.8136V43.5971C22.8716 43.2645 23.1412 42.9949 23.4738 42.9949Z" fill="#C0C0BE"/>
<path d="M23.4739 42.6265H18.8907V48.7832H23.4739V42.6265Z" fill="#878787"/>
<path d="M24.1093 42.0615C24.1093 42.4207 23.8182 42.7118 23.459 42.7118H18.9057C18.5465 42.7118 18.2554 42.4207 18.2554 42.0615C18.2554 41.7023 18.5465 41.4111 18.9057 41.4111H23.459C23.8182 41.4111 24.1093 41.7023 24.1093 42.0615Z" fill="#C0C0BE"/>
<path d="M21.1818 42.9949C21.5145 42.9949 21.7841 43.2645 21.7841 43.5971V47.8136C21.7841 48.1462 21.5145 48.4158 21.1818 48.4158C20.8492 48.4158 20.5796 48.1462 20.5796 47.8136V43.5971C20.5796 43.2645 20.8492 42.9949 21.1818 42.9949Z" fill="#C0C0BE"/>
<path d="M24.1093 49.4344C24.1093 49.7935 23.8182 50.0847 23.459 50.0847H18.9057C18.5465 50.0847 18.2554 49.7935 18.2554 49.4344C18.2554 49.0752 18.5465 48.7832 18.9057 48.7832H23.459C23.8182 48.7832 24.1093 49.0752 24.1093 49.4344Z" fill="#C0C0BE"/>
<path fill-rule="evenodd" clip-rule="evenodd" d="M19.3793 56.0438V56.0189C19.3793 55.3221 19.9442 54.7581 20.6401 54.7581H25.0267C25.7235 54.7581 26.2875 55.3221 26.2875 56.0189V56.0438C26.2875 56.7406 25.7235 57.3055 25.0267 57.3055H20.6401C19.9442 57.3055 19.3793 56.7406 19.3793 56.0438Z" fill="#C1BEA2"/>
<path fill-rule="evenodd" clip-rule="evenodd" d="M19.3793 58.5914V58.5665C19.3793 57.8697 19.9442 57.3057 20.6401 57.3057H25.3386C26.0345 57.3057 26.5994 57.8697 26.5994 58.5665V58.5914C26.5994 59.2882 26.0345 59.8531 25.3386 59.8531H20.6401C19.9442 59.8531 19.3793 59.2882 19.3793 58.5914Z" fill="#C1BEA2"/>
<path fill-rule="evenodd" clip-rule="evenodd" d="M19.3793 61.139V61.1141C19.3793 60.4173 19.9442 59.8533 20.6401 59.8533H24.5787C25.2747 59.8533 25.8396 60.4173 25.8396 61.1141V61.139C25.8396 61.8358 25.2747 62.4007 24.5787 62.4007H20.6401C19.9442 62.4007 19.3793 61.8358 19.3793 61.139Z" fill="#C1BEA2"/>
<path fill-rule="evenodd" clip-rule="evenodd" d="M19.3793 63.5204V63.498C19.3793 62.8792 19.8811 62.3782 20.4991 62.3782H23.9972C24.6152 62.3782 25.1171 62.8792 25.1171 63.498V63.5204C25.1171 64.1392 24.6152 64.6403 23.9972 64.6403H20.4991C19.8811 64.6403 19.3793 64.1392 19.3793 63.5204Z" fill="#C1BEA2"/>
<path d="M10.7067 55.9928C10.7067 55.9928 6.14179 55.0248 4.59473 54.8862C2.06717 54.6589 0 56.9841 0 59.5722V59.6668C0 62.2549 2.07049 64.614 4.59473 64.3535C6.14759 64.1926 10.7067 63.0753 10.7067 63.0753V55.9928Z" fill="#FFD2A1"/>
<path fill-rule="evenodd" clip-rule="evenodd" d="M22.6096 56.0438V56.0189C22.6096 55.3221 22.0447 54.7581 21.3487 54.7581H15.7279C14.6121 54.7581 13.6142 55.2525 12.934 56.0314L9.77188 55.7983C8.71838 58.2072 8.76732 60.7845 9.77188 63.5095L12.7009 63.0939C13.3737 64.0421 14.4769 64.6625 15.7279 64.6625H20.5582C21.177 64.6625 21.6789 64.1615 21.6789 63.5427V63.5203C21.6789 62.9015 21.177 62.3996 20.5582 62.3996H20.9688C21.6647 62.3996 22.2297 61.8355 22.2297 61.1387V61.1138C22.2297 60.417 21.6647 59.853 20.9688 59.853H21.3487C22.0447 59.853 22.6096 59.2881 22.6096 58.5913V58.5664C22.6096 57.8696 22.0447 57.3055 21.3487 57.3055C22.0447 57.3055 22.6096 56.7406 22.6096 56.0438Z" fill="#EBE6B9"/>
<path fill-rule="evenodd" clip-rule="evenodd" d="M31.8097 54.3036L31.8147 54.2762C31.9508 53.5222 32.7712 52.9747 33.6106 53.0875C36.319 53.4749 38.9146 54.0987 41.3725 54.9191V57.8473C38.757 56.9174 35.9665 56.2223 33.0308 55.8249C32.2353 55.7254 31.6729 55.0593 31.8097 54.3036Z" fill="#C1BEA2"/>
<path d="M45.2778 55.9994C45.2778 55.9994 49.8427 55.0313 51.3898 54.892C53.9173 54.6655 55.9845 56.9907 55.9845 59.5788V59.6733C55.9845 62.2614 53.914 64.6206 51.3898 64.3601C49.8369 64.1992 45.2778 63.0818 45.2778 63.0818V55.9994Z" fill="#FFD2A1"/>
<path d="M38.3397 42.2699V42.2641C38.3356 41.9597 38.2775 41.6511 38.1589 41.35C37.706 40.2002 36.5654 39.2836 34.7902 39.885L32.0569 40.6656C31.6231 40.7892 31.3236 41.1865 31.3236 41.6378V42.0011H35.4198L35.8711 43.5167V46.9384H37.993L38.3074 42.7021C38.3298 42.5602 38.3414 42.4151 38.3397 42.2699Z" fill="#706F6F"/>
<path d="M36.3904 46.4192V43.4412L35.8072 41.481H31.8687C31.9201 41.3317 32.042 41.2106 32.1996 41.165L34.9445 40.3811L34.957 40.3769C35.2755 40.2691 35.5799 40.2144 35.8611 40.2144C37.0275 40.2144 37.5185 41.1418 37.6753 41.5408C37.7682 41.7747 37.8163 42.021 37.8196 42.2716V42.2989C37.8196 42.4043 37.8114 42.513 37.7939 42.6208L37.7906 42.6424L37.5102 46.4192H36.3904Z" fill="#9D9D9C"/>
<path d="M31.6421 41.9954C31.6421 41.9075 31.5708 41.8362 31.4829 41.8362C31.3949 41.8362 31.3236 41.9075 31.3236 41.9954C31.3236 42.0842 31.3949 42.1555 31.4829 42.1555C31.5708 42.1555 31.6421 42.0842 31.6421 41.9954Z" fill="#706F6F"/>
<path d="M31.9606 41.9954C31.9606 41.9075 31.8893 41.8362 31.8014 41.8362C31.7134 41.8362 31.6421 41.9075 31.6421 41.9954C31.6421 42.0842 31.7134 42.1555 31.8014 42.1555C31.8893 42.1555 31.9606 42.0842 31.9606 41.9954Z" fill="#706F6F"/>
<path d="M32.2794 41.9954C32.2794 41.9075 32.208 41.8362 32.1201 41.8362C32.0322 41.8362 31.9608 41.9075 31.9608 41.9954C31.9608 42.0842 32.0322 42.1555 32.1201 42.1555C32.208 42.1555 32.2794 42.0842 32.2794 41.9954Z" fill="#706F6F"/>
<path d="M32.5977 41.9954C32.5977 41.9075 32.5264 41.8362 32.4384 41.8362C32.3505 41.8362 32.2792 41.9075 32.2792 41.9954C32.2792 42.0842 32.3505 42.1555 32.4384 42.1555C32.5264 42.1555 32.5977 42.0842 32.5977 41.9954Z" fill="#706F6F"/>
<path d="M32.9171 41.9954C32.9171 41.9075 32.8458 41.8362 32.757 41.8362C32.6691 41.8362 32.5978 41.9075 32.5978 41.9954C32.5978 42.0842 32.6691 42.1555 32.757 42.1555C32.8458 42.1555 32.9171 42.0842 32.9171 41.9954Z" fill="#706F6F"/>
<path d="M33.2357 41.9954C33.2357 41.9075 33.1643 41.8362 33.0764 41.8362C32.9885 41.8362 32.9171 41.9075 32.9171 41.9954C32.9171 42.0842 32.9885 42.1555 33.0764 42.1555C33.1643 42.1555 33.2357 42.0842 33.2357 41.9954Z" fill="#706F6F"/>
<path d="M33.5541 41.9954C33.5541 41.9075 33.4828 41.8362 33.3949 41.8362C33.3069 41.8362 33.2356 41.9075 33.2356 41.9954C33.2356 42.0842 33.3069 42.1555 33.3949 42.1555C33.4828 42.1555 33.5541 42.0842 33.5541 41.9954Z" fill="#706F6F"/>
<path d="M33.8727 41.9954C33.8727 41.9075 33.8014 41.8362 33.7135 41.8362C33.6255 41.8362 33.5542 41.9075 33.5542 41.9954C33.5542 42.0842 33.6255 42.1555 33.7135 42.1555C33.8014 42.1555 33.8727 42.0842 33.8727 41.9954Z" fill="#706F6F"/>
<path d="M34.1912 41.9954C34.1912 41.9075 34.1199 41.8362 34.0319 41.8362C33.944 41.8362 33.8727 41.9075 33.8727 41.9954C33.8727 42.0842 33.944 42.1555 34.0319 42.1555C34.1199 42.1555 34.1912 42.0842 34.1912 41.9954Z" fill="#706F6F"/>
<path d="M34.5097 41.9954C34.5097 41.9075 34.4384 41.8362 34.3504 41.8362C34.2625 41.8362 34.1912 41.9075 34.1912 41.9954C34.1912 42.0842 34.2625 42.1555 34.3504 42.1555C34.4384 42.1555 34.5097 42.0842 34.5097 41.9954Z" fill="#706F6F"/>
<path d="M34.8284 41.9954C34.8284 41.9075 34.7571 41.8362 34.6692 41.8362C34.5812 41.8362 34.5099 41.9075 34.5099 41.9954C34.5099 42.0842 34.5812 42.1555 34.6692 42.1555C34.7571 42.1555 34.8284 42.0842 34.8284 41.9954Z" fill="#706F6F"/>
<path d="M35.1476 41.9954C35.1476 41.9075 35.0763 41.8362 34.9883 41.8362C34.8996 41.8362 34.8282 41.9075 34.8282 41.9954C34.8282 42.0842 34.8996 42.1555 34.9883 42.1555C35.0763 42.1555 35.1476 42.0842 35.1476 41.9954Z" fill="#706F6F"/>
<path d="M34.1166 46.9384L33.229 48.6796C33.073 48.9857 33.0034 49.3283 33.0282 49.6709L33.7541 59.9096H35.9573V49.2437L36.4666 46.8845L34.1166 46.9384Z" fill="#706F6F"/>
<path d="M36.4617 75.4309C36.4642 75.7461 36.7205 76 37.0357 76H37.0473C37.3576 76 37.6114 75.7536 37.6214 75.4442L38.1423 59.3158L36.3165 59.3083L36.4617 75.4309Z" fill="#E94E1B"/>
<path d="M37.8619 46.6706L35.7193 45.0588H32.0212L32.3622 46.1239C32.5314 46.654 32.8624 47.1169 33.3087 47.4495L36.2286 49.6237L36.3165 59.3083L38.1423 59.3158L38.5073 48.0186C38.5247 47.491 38.2833 46.9883 37.8619 46.6706Z" fill="#878787"/>
<path d="M32.0212 45.0585H35.7192V43.7329H31.6222V44.146C31.6222 44.5127 31.7757 44.8453 32.0212 45.0585Z" fill="#706F6F"/>
<path d="M31.9407 43.7332C31.9407 43.6453 31.8694 43.574 31.7815 43.574C31.6935 43.574 31.6222 43.6453 31.6222 43.7332C31.6222 43.822 31.6935 43.8933 31.7815 43.8933C31.8694 43.8933 31.9407 43.822 31.9407 43.7332Z" fill="#706F6F"/>
<path d="M32.2593 43.7332C32.2593 43.6453 32.188 43.574 32.1001 43.574C32.0121 43.574 31.9408 43.6453 31.9408 43.7332C31.9408 43.822 32.0121 43.8933 32.1001 43.8933C32.188 43.8933 32.2593 43.822 32.2593 43.7332Z" fill="#706F6F"/>
<path d="M32.5779 43.7332C32.5779 43.6453 32.5066 43.574 32.4187 43.574C32.3307 43.574 32.2594 43.6453 32.2594 43.7332C32.2594 43.822 32.3307 43.8933 32.4187 43.8933C32.5066 43.8933 32.5779 43.822 32.5779 43.7332Z" fill="#706F6F"/>
<path d="M32.8964 43.7332C32.8964 43.6453 32.8251 43.574 32.7371 43.574C32.6492 43.574 32.5779 43.6453 32.5779 43.7332C32.5779 43.822 32.6492 43.8933 32.7371 43.8933C32.8251 43.8933 32.8964 43.822 32.8964 43.7332Z" fill="#706F6F"/>
<path d="M33.2149 43.7332C33.2149 43.6453 33.1436 43.574 33.0556 43.574C32.9677 43.574 32.8964 43.6453 32.8964 43.7332C32.8964 43.822 32.9677 43.8933 33.0556 43.8933C33.1436 43.8933 33.2149 43.822 33.2149 43.7332Z" fill="#706F6F"/>
<path d="M33.5343 43.7332C33.5343 43.6453 33.463 43.574 33.3742 43.574C33.2863 43.574 33.215 43.6453 33.215 43.7332C33.215 43.822 33.2863 43.8933 33.3742 43.8933C33.463 43.8933 33.5343 43.822 33.5343 43.7332Z" fill="#706F6F"/>
<path d="M33.853 43.7332C33.853 43.6453 33.7816 43.574 33.6937 43.574C33.6058 43.574 33.5344 43.6453 33.5344 43.7332C33.5344 43.822 33.6058 43.8933 33.6937 43.8933C33.7816 43.8933 33.853 43.822 33.853 43.7332Z" fill="#706F6F"/>
<path d="M34.1714 43.7332C34.1714 43.6453 34.1001 43.574 34.0122 43.574C33.9242 43.574 33.8529 43.6453 33.8529 43.7332C33.8529 43.822 33.9242 43.8933 34.0122 43.8933C34.1001 43.8933 34.1714 43.822 34.1714 43.7332Z" fill="#706F6F"/>
<path d="M34.4898 43.7332C34.4898 43.6453 34.4185 43.574 34.3305 43.574C34.2426 43.574 34.1713 43.6453 34.1713 43.7332C34.1713 43.822 34.2426 43.8933 34.3305 43.8933C34.4185 43.8933 34.4898 43.822 34.4898 43.7332Z" fill="#706F6F"/>
<path d="M34.8085 43.7332C34.8085 43.6453 34.7372 43.574 34.6493 43.574C34.5613 43.574 34.49 43.6453 34.49 43.7332C34.49 43.822 34.5613 43.8933 34.6493 43.8933C34.7372 43.8933 34.8085 43.822 34.8085 43.7332Z" fill="#706F6F"/>
<path d="M35.127 43.7332C35.127 43.6453 35.0557 43.574 34.9677 43.574C34.8798 43.574 34.8085 43.6453 34.8085 43.7332C34.8085 43.822 34.8798 43.8933 34.9677 43.8933C35.0557 43.8933 35.127 43.822 35.127 43.7332Z" fill="#706F6F"/>
<path d="M35.4455 43.7332C35.4455 43.6453 35.3742 43.574 35.2862 43.574C35.1983 43.574 35.127 43.6453 35.127 43.7332C35.127 43.822 35.1983 43.8933 35.2862 43.8933C35.3742 43.8933 35.4455 43.822 35.4455 43.7332Z" fill="#706F6F"/>
<path d="M33.3046 45.6575C33.3046 45.8143 33.1777 45.9412 33.0209 45.9412C32.8641 45.9412 32.7372 45.8143 32.7372 45.6575C32.7372 45.5007 32.8641 45.3738 33.0209 45.3738C33.1777 45.3738 33.3046 45.5007 33.3046 45.6575Z" fill="#B2B2B2"/>
<path d="M35.2722 45.6575C35.2722 45.8143 35.1453 45.9412 34.9885 45.9412C34.8317 45.9412 34.704 45.8143 34.704 45.6575C34.704 45.5007 34.8317 45.3738 34.9885 45.3738C35.1453 45.3738 35.2722 45.5007 35.2722 45.6575Z" fill="#B2B2B2"/>
<path d="M36.334 47.1767C36.334 47.5168 36.0594 47.7914 35.7193 47.7914C35.38 47.7914 35.1046 47.5168 35.1046 47.1767C35.1046 46.8374 35.38 46.562 35.7193 46.562C36.0594 46.562 36.334 46.8374 36.334 47.1767Z" fill="#B2B2B2"/>
<path d="M35.5939 75.2915C35.5939 75.683 35.2762 75.9999 34.8855 75.9999C34.494 75.9999 34.1771 75.683 34.1771 75.2915V60.6239C34.1771 60.2324 34.494 59.9155 34.8855 59.9155C35.2762 59.9155 35.5939 60.2324 35.5939 60.6239V75.2915Z" fill="#706F6F"/>
<path d="M35.6628 61.1504L35.5408 61.2856L34.2294 61.4316L34.1074 61.3238L34.2294 61.1877L35.5408 61.0417L35.6628 61.1504Z" fill="#878787"/>
<path d="M35.6628 61.5423L35.5408 61.6775L34.2294 61.8235L34.1074 61.7148L34.2294 61.5796L35.5408 61.4336L35.6628 61.5423Z" fill="#878787"/>
<path d="M35.6628 61.9328L35.5408 62.068L34.2294 62.214L34.1074 62.1061L34.2294 61.9709L35.5408 61.825L35.6628 61.9328Z" fill="#878787"/>
<path d="M35.6628 62.3242L35.5408 62.4595L34.2294 62.6055L34.1074 62.4976L34.2294 62.3616L35.5408 62.2156L35.6628 62.3242Z" fill="#878787"/>
<path d="M35.6628 62.7153L35.5408 62.8513L34.2294 62.9973L34.1074 62.8886L34.2294 62.7534L35.5408 62.6074L35.6628 62.7153Z" fill="#878787"/>
<path d="M35.6628 63.1069L35.5408 63.2421L34.2294 63.3881L34.1074 63.2802L34.2294 63.145L35.5408 62.999L35.6628 63.1069Z" fill="#878787"/>
<path d="M35.6628 63.4981L35.5408 63.6333L34.2294 63.7793L34.1074 63.6715L34.2294 63.5354L35.5408 63.3894L35.6628 63.4981Z" fill="#878787"/>
<path d="M35.6628 63.8888L35.5408 64.0249L34.2294 64.1709L34.1074 64.0622L34.2294 63.927L35.5408 63.781L35.6628 63.8888Z" fill="#878787"/>
<path d="M35.6628 64.2802L35.5408 64.4154L34.2294 64.5614L34.1074 64.4536L34.2294 64.3184L35.5408 64.1724L35.6628 64.2802Z" fill="#878787"/>
<path d="M35.6628 64.6721L35.5408 64.8073L34.2294 64.9534L34.1074 64.8455L34.2294 64.7095L35.5408 64.5635L35.6628 64.6721Z" fill="#878787"/>
<path d="M35.6628 65.0627L35.5408 65.1987L34.2294 65.3447L34.1074 65.236L34.2294 65.1008L35.5408 64.9548L35.6628 65.0627Z" fill="#878787"/>
<path d="M35.6628 65.454L35.5408 65.5892L34.2294 65.7352L34.1074 65.6274L34.2294 65.4922L35.5408 65.3462L35.6628 65.454Z" fill="#878787"/>
<path d="M35.6628 65.8457L35.5408 65.9809L34.2294 66.1269L34.1074 66.0191L34.2294 65.8831L35.5408 65.7371L35.6628 65.8457Z" fill="#878787"/>
<path d="M35.6628 66.2363L35.5408 66.3723L34.2294 66.5183L34.1074 66.4096L34.2294 66.2744L35.5408 66.1284L35.6628 66.2363Z" fill="#878787"/>
<path d="M35.6628 66.6279L35.5408 66.7631L34.2294 66.9091L34.1074 66.8012L34.2294 66.666L35.5408 66.52L35.6628 66.6279Z" fill="#878787"/>
<path d="M35.6628 67.0196L35.5408 67.1548L34.2294 67.3008L34.1074 67.1929L34.2294 67.0569L35.5408 66.9109L35.6628 67.0196Z" fill="#878787"/>
<path d="M35.6628 67.4101L35.5408 67.5461L34.2294 67.6921L34.1074 67.5834L34.2294 67.4482L35.5408 67.3022L35.6628 67.4101Z" fill="#878787"/>
<path d="M35.6628 67.8017L35.5408 67.9369L34.2294 68.0829L34.1074 67.975L34.2294 67.8398L35.5408 67.6938L35.6628 67.8017Z" fill="#878787"/>
<path d="M35.6628 68.1931L35.5408 68.3284L34.2294 68.4743L34.1074 68.3665L34.2294 68.2305L35.5408 68.0845L35.6628 68.1931Z" fill="#878787"/>
<path d="M35.9979 61.1116H33.6977L33.5649 60.9789V60.0424L33.6977 59.9097H35.9979L36.1307 60.0424V60.9789L35.9979 61.1116Z" fill="#DADADA"/>
<path d="M33.8121 60.925L33.7366 61.0038L33.662 60.925V60.0971L33.7366 60.0183L33.8121 60.0971V60.925Z" fill="#B2B2B2"/>
<path d="M34.0345 60.925L33.9591 61.0038L33.8844 60.925V60.0971L33.9591 60.0183L34.0345 60.0971V60.925Z" fill="#B2B2B2"/>
<path d="M34.256 60.925L34.1813 61.0038L34.1067 60.925V60.0971L34.1813 60.0183L34.256 60.0971V60.925Z" fill="#B2B2B2"/>
<path d="M34.4784 60.925L34.4037 61.0038L34.3282 60.925V60.0971L34.4037 60.0183L34.4784 60.0971V60.925Z" fill="#B2B2B2"/>
<path d="M34.7006 60.925L34.6259 61.0038L34.5504 60.925V60.0971L34.6259 60.0183L34.7006 60.0971V60.925Z" fill="#B2B2B2"/>
<path d="M34.9228 60.925L34.8474 61.0038L34.7727 60.925V60.0971L34.8474 60.0183L34.9228 60.0971V60.925Z" fill="#B2B2B2"/>
<path d="M35.1444 60.925L35.0698 61.0038L34.9951 60.925V60.0971L35.0698 60.0183L35.1444 60.0971V60.925Z" fill="#B2B2B2"/>
<path d="M35.3666 60.925L35.2919 61.0038L35.2173 60.925V60.0971L35.2919 60.0183L35.3666 60.0971V60.925Z" fill="#B2B2B2"/>
<path d="M35.589 60.925L35.5143 61.0038L35.4388 60.925V60.0971L35.5143 60.0183L35.589 60.0971V60.925Z" fill="#B2B2B2"/>
<path d="M35.8114 60.925L35.7367 61.0038L35.6613 60.925V60.0971L35.7367 60.0183L35.8114 60.0971V60.925Z" fill="#B2B2B2"/>
<path d="M36.0337 60.925L35.9582 61.0038L35.8835 60.925V60.0971L35.9582 60.0183L36.0337 60.0971V60.925Z" fill="#B2B2B2"/>
<path fill-rule="evenodd" clip-rule="evenodd" d="M36.6052 56.0507V56.0259C36.6052 55.3291 36.0403 54.7642 35.3443 54.7642H30.9578C30.2618 54.7642 29.6969 55.3291 29.6969 56.0259V56.0507C29.6969 56.7475 30.2618 57.3116 30.9578 57.3116H35.3443C36.0403 57.3116 36.6052 56.7475 36.6052 56.0507Z" fill="#C1BEA2"/>
<path fill-rule="evenodd" clip-rule="evenodd" d="M36.6051 58.5981V58.5732C36.6051 57.8764 36.0401 57.3115 35.3442 57.3115H30.6458C29.9498 57.3115 29.3849 57.8764 29.3849 58.5732V58.5981C29.3849 59.2949 29.9498 59.859 30.6458 59.859H35.3442C36.0401 59.859 36.6051 59.2949 36.6051 58.5981Z" fill="#C1BEA2"/>
<path fill-rule="evenodd" clip-rule="evenodd" d="M36.6052 61.1455V61.1206C36.6052 60.4238 36.0403 59.8589 35.3443 59.8589H31.4058C30.7098 59.8589 30.1449 60.4238 30.1449 61.1206V61.1455C30.1449 61.8423 30.7098 62.4063 31.4058 62.4063H35.3443C36.0403 62.4063 36.6052 61.8423 36.6052 61.1455Z" fill="#C1BEA2"/>
<path fill-rule="evenodd" clip-rule="evenodd" d="M36.6051 63.5273V63.5049C36.6051 62.886 36.1041 62.385 35.4853 62.385H31.9872C31.3692 62.385 30.8673 62.886 30.8673 63.5049V63.5273C30.8673 64.1461 31.3692 64.6471 31.9872 64.6471H35.4853C36.1041 64.6471 36.6051 64.1461 36.6051 63.5273Z" fill="#C1BEA2"/>
<path fill-rule="evenodd" clip-rule="evenodd" d="M33.375 56.0507V56.0259C33.375 55.3291 33.9399 54.7642 34.6359 54.7642H40.2567C41.3724 54.7642 42.3703 55.2594 43.0506 56.0383L46.2127 55.8052C47.267 58.2133 47.2172 60.7915 46.2127 63.5164L43.2837 63.1008C42.6117 64.049 41.5076 64.6695 40.2567 64.6695H35.4264C34.8076 64.6695 34.3066 64.1676 34.3066 63.5496V63.5264C34.3066 62.9084 34.8076 62.4065 35.4264 62.4065H35.0158C34.3198 62.4065 33.7549 61.8425 33.7549 61.1457V61.1208C33.7549 60.424 34.3198 59.8591 35.0158 59.8591H34.6359C33.9399 59.8591 33.375 59.295 33.375 58.5982V58.5733C33.375 57.8765 33.9399 57.3116 34.6359 57.3116C33.9399 57.3116 33.375 56.7475 33.375 56.0507Z" fill="#EBE6B9"/>
</svg>
