<svg width="55" height="77" viewBox="0 0 55 77" fill="none" xmlns="http://www.w3.org/2000/svg">
<path d="M0.00106812 63.0676C0.0157567 63.0676 0.031776 63.0823 0.0464646 63.0823C9.16006 65.4218 17.2001 67.6037 23.4841 69.2809C24.5764 69.5586 25.6246 69.8377 26.6088 70.0874L26.7009 73.7409C25.6901 73.6741 24.6472 73.578 23.5896 73.4671C16.7648 72.7381 9.18145 71.0502 1.21756 68.8643L0.00106812 63.0676Z" fill="#EAB99A"/>
<path d="M54.9511 63.0676C54.935 63.0676 54.9203 63.0823 54.9043 63.0823C45.7907 65.4218 37.7507 67.6037 31.468 69.2809C30.3757 69.5586 29.3275 69.8377 28.342 70.0874L28.2499 73.7409C29.2621 73.6741 30.3036 73.578 31.3625 73.4671C38.186 72.7381 45.7707 71.0502 53.7333 68.8643L54.9511 63.0676Z" fill="#EAB99A"/>
<path d="M42.9718 18.4115C42.9718 28.58 27.5862 34.5823 27.5862 34.5823C27.5862 34.5823 12.2006 28.58 12.2006 18.4115C12.2006 8.24297 19.0896 0 27.5862 0C36.0843 0 42.9718 8.24163 42.9718 18.4115Z" fill="#F3AA43"/>
<path d="M35.6863 10.8184C35.6863 10.8184 43.5274 23.6148 31.241 32.8326L22.6148 32.0835C22.6148 32.0835 17.2495 26.212 18.5527 20.5462L35.6863 10.8184Z" fill="#EF893A"/>
<path d="M14.9915 42.0319C14.8846 42.3564 13.7135 45.6707 12.1111 49.9744C11.9843 50.2989 11.8588 50.6408 11.7333 50.984C11.2632 52.2271 10.7785 53.5224 10.2737 54.8551C10.2924 54.8551 10.2737 54.8738 10.2737 54.8738C10.1469 55.2156 10.004 55.5588 9.87714 55.918C9.48055 56.9262 9.08397 57.953 8.68737 58.9799L8.58057 59.2683C7.55237 61.8976 7.66185 64.4721 7.46289 66.6701C7.32001 68.3085 5.91392 69.5343 4.27548 69.5343H4.25677C1.60882 67.8051 0.959831 67.8959 0.293503 64.42C0.150623 63.6816 -0.120432 62.9605 0.0598373 62.2408C2.38197 52.8574 4.27413 48.0663 8.03842 39.5469C8.05711 39.4574 8.09315 39.3853 8.12786 39.2945C8.86763 37.835 10.5782 37.0244 12.2714 37.4571C12.3608 37.4758 12.469 37.4932 12.5598 37.5292C12.9017 37.6374 13.2262 37.7816 13.4785 37.9619C14.8299 38.8445 15.4962 40.5016 14.9915 42.0319Z" fill="#EAB99A"/>
<path d="M54.7053 64.42C54.039 67.8972 53.4087 67.8051 50.7421 69.5343H50.7247C49.0849 69.5343 47.6802 68.3098 47.536 66.6701C47.3384 64.4721 47.4465 61.8976 46.4196 59.2683L46.3302 58.9799C45.9336 57.953 45.5196 56.9075 45.1231 55.8819C44.3312 53.8295 43.5741 51.8118 42.9078 49.9744C41.3054 45.6693 40.1343 42.3564 40.0274 42.0319C39.5227 40.5003 40.189 38.8445 41.5216 37.9619C41.7914 37.7816 42.0985 37.6374 42.4404 37.5292C42.5485 37.4945 42.638 37.4758 42.7475 37.4571C44.4393 37.0244 46.1339 37.835 46.8723 39.2945C46.9084 39.384 46.9444 39.4561 46.9805 39.5469C50.7274 48.0663 52.6182 52.8574 54.9404 62.2408C55.1206 62.9605 54.8482 63.6816 54.7053 64.42Z" fill="#EAB99A"/>
<path d="M44.3326 50.1016C45.286 51.0911 45.8455 52.2435 45.8455 53.4867C45.8455 54.3333 45.5931 55.1439 45.1244 55.8823C44.386 57.0894 43.1067 58.0976 41.4509 58.8173C41.3962 58.8534 41.3775 58.8721 41.3241 58.8908C41.0183 59.0336 40.7112 59.1418 40.3693 59.2513C40.2799 59.2874 40.1891 59.3234 40.0996 59.3408C40.0635 59.4129 40.0635 59.449 40.0448 59.5211V59.5398C38.4237 63.5738 37.3795 67.2125 37.0724 70.7966H17.9278C17.6207 67.2673 16.6139 63.6833 15.0275 59.72C14.9915 59.5932 14.938 59.469 14.8846 59.3421C14.488 59.234 14.1275 59.0898 13.7483 58.9282C13.0472 58.6224 12.3982 58.2805 11.8227 57.8839C11.0108 57.3258 10.3445 56.6594 9.87714 55.921C9.40844 55.1652 9.13873 54.3533 9.13873 53.4894C9.13873 52.2462 9.69689 51.0938 10.6516 50.1043L8.11185 40.7383C8.11185 38.9904 9.71558 37.5683 11.7333 37.4601H16.1999C17.8023 37.388 19.1176 37.0996 20.1792 36.6135C20.935 36.2703 21.5479 35.839 22.07 35.3156C22.305 35.0819 22.5213 34.8469 22.7016 34.5772C23.4935 33.4795 23.9261 32.0921 24.1237 30.5071H30.8591C31.0568 32.0908 31.4907 33.4795 32.2826 34.5772C32.4629 34.8469 32.6605 35.0819 32.8941 35.3156C33.4176 35.839 34.0466 36.2703 34.8037 36.6135C35.8666 37.0996 37.1805 37.388 38.7829 37.4601H43.0159C45.1418 37.4601 46.871 38.9356 46.871 40.7383L44.3326 50.1016Z" fill="#EAB99A"/>
<path d="M44.223 54.3692C44.223 56.1706 43.124 57.7743 41.4496 58.8172C41.3948 58.8533 41.3761 58.8719 41.3227 58.8906C41.0343 59.0709 40.7098 59.2325 40.3866 59.3767C40.2598 59.4301 40.1703 59.4849 40.0434 59.5196V59.5383C39.0166 59.9162 37.8455 60.1325 36.621 60.1325C32.4067 60.1325 29.003 57.5567 29.003 54.3692C29.003 51.1992 32.4067 48.606 36.621 48.606C37.8108 48.606 38.9271 48.8223 39.9353 49.2002C42.4764 50.1202 44.223 52.1005 44.223 54.3692Z" fill="#F5C4A5"/>
<path d="M25.4751 54.3696C25.4751 57.5583 22.0526 60.1329 17.857 60.1329C16.8662 60.1329 15.8928 59.9886 15.0288 59.7176C14.5601 59.5907 14.1462 59.4291 13.7496 59.2315C12.9938 58.8536 12.3448 58.4036 11.824 57.8801C10.9601 57.0335 10.4179 55.9893 10.2751 54.873C10.2751 54.873 10.2937 54.8543 10.2751 54.8543C10.2564 54.6927 10.2563 54.5298 10.2563 54.3682C10.2563 53.1077 10.7958 51.9379 11.7332 50.9832C12.3448 50.2981 13.2101 49.7226 14.1822 49.3073C15.2638 48.876 16.5231 48.605 17.857 48.605C22.0526 48.6063 25.4751 51.1995 25.4751 54.3696Z" fill="#F5C4A5"/>
<path d="M36.9883 17.0669C36.9883 23.8664 32.8167 32.0853 27.625 32.0853C27.3766 32.0853 27.1469 32.0693 26.9146 32.0239C22.0473 31.3295 18.1842 23.5566 18.1842 17.0669C18.1842 10.5625 22.0006 5.24657 26.8678 4.76852C27.1002 4.7525 27.3325 4.73779 27.5782 4.73779C32.7686 4.73646 36.9883 10.2527 36.9883 17.0669Z" fill="#EAB99A"/>
<path d="M35.5661 17.0668C35.5661 23.5565 31.7645 31.3294 26.9146 32.0238C22.0473 31.3294 18.1842 23.5565 18.1842 17.0668C18.1842 16.8665 18.1842 16.6488 18.2163 16.4485C18.3712 11.9218 20.3955 8.02796 23.2998 6.09708C24.1184 5.54025 24.985 5.15432 25.9118 4.938L25.9732 4.92198C25.9892 4.9073 26.0199 4.90727 26.0359 4.90727C26.3137 4.84451 26.5914 4.79914 26.8692 4.76709C27.4714 4.82851 28.0603 4.96738 28.6305 5.16902C32.1677 6.43624 34.8731 10.3154 35.4433 15.1346C35.5208 15.7689 35.5661 16.4178 35.5661 17.0668Z" fill="#F5C4A5"/>
<path d="M17.1774 8.18674C17.1774 8.18674 18.9734 12.4357 26.6381 13.5948C34.3016 14.7525 35.8466 18.2297 36.6211 20.5478C36.6211 20.5478 40.87 10.5048 34.4311 6.64175C27.9922 2.77998 20.0096 1.74913 17.1774 8.18674Z" fill="#F3AA43"/>
<path d="M24.786 27.1633C17.8851 27.1633 17.4177 20.6523 17.4137 20.5868L18.3137 20.5334C18.3284 20.7671 18.7423 26.2633 24.786 26.2633V27.1633Z" fill="#606060"/>
<path d="M17.8638 23.077C17.4578 23.077 17.1266 22.7459 17.1266 22.3399V19.7441C17.1266 19.3381 17.4578 19.0056 17.8638 19.0056C18.271 19.0056 18.6022 19.3381 18.6022 19.7441V22.3399C18.6022 22.7459 18.271 23.077 17.8638 23.077Z" fill="#606060"/>
<path d="M26.8478 26.5823V26.8454C26.8478 27.1779 26.574 27.4516 26.2415 27.4516H24.7086C24.3748 27.4516 24.1024 27.1779 24.1024 26.8454V26.5823C24.1024 26.2485 24.3748 25.9761 24.7086 25.9761H26.2415C26.574 25.9761 26.8478 26.2485 26.8478 26.5823Z" fill="#404040"/>
<path d="M45.1231 55.8821C45.5197 56.9077 45.9349 57.9546 46.3302 58.9801L46.4196 59.2685C46.7401 60.0911 46.9431 60.9083 47.086 61.7095C48.4013 61.349 49.7006 60.9363 50.8903 60.262C51.9506 59.6638 52.896 58.9107 53.8948 58.2363C51.9933 51.3126 50.1505 46.7618 46.9778 39.5457C46.9418 39.4563 46.9057 39.3842 46.8697 39.2934C46.1312 37.8338 44.438 37.0233 42.7449 37.4559H38.7816C37.1792 37.3838 35.8639 37.0954 34.8023 36.6094L27.4901 43.3274L20.1765 36.6094C19.1136 37.0954 17.7996 37.3838 16.1972 37.4559H12.2714C10.5782 37.0233 8.86762 37.8338 8.12785 39.2934C8.09313 39.3828 8.05576 39.4549 8.0384 39.5457C4.77086 46.9421 2.91473 51.5317 0.961151 58.7518C2.88135 60.5451 5.34236 61.3783 7.8234 62.2089C7.96628 61.2475 8.19063 60.262 8.57921 59.2685L8.68602 58.9801C9.08261 57.9532 9.47923 56.9264 9.87582 55.9182C10.3445 56.6566 11.0108 57.323 11.8214 57.8811C12.3435 58.4046 12.9911 58.8532 13.7469 59.2325C14.1435 59.4301 14.5575 59.593 15.0262 59.7185C16.6125 63.6818 17.6194 67.2645 17.9265 70.7951H37.0711C37.3769 67.211 38.4224 63.5736 40.0435 59.5383V59.5196C40.1703 59.4848 40.2598 59.4301 40.3867 59.3767C40.7098 59.2325 41.0343 59.0709 41.3227 58.8906C41.3761 58.8719 41.3948 58.8546 41.4496 58.8172C43.1067 58.0974 44.386 57.0906 45.1231 55.8821Z" fill="#E17250"/>
<path d="M48.3679 51.321V72.7236C48.3679 73.6343 47.6161 74.386 46.7068 74.386H7.91822C6.99684 74.386 6.24503 73.6329 6.24503 72.7236V51.321C6.24503 50.4089 6.99684 49.6584 7.91822 49.6584H46.7068C47.6175 49.6584 48.3679 50.4089 48.3679 51.321Z" fill="#A0A0A0"/>
<path d="M51.8518 73.5552C51.8518 74.0119 51.4765 74.3871 51.0212 74.3871H4.14861C3.69326 74.3871 3.31802 74.0119 3.31802 73.5552C3.31802 73.0998 3.69326 72.7246 4.14861 72.7246H51.0212C51.4765 72.7246 51.8518 73.0998 51.8518 73.5552Z" fill="#909090"/>
<path d="M29.8763 60.134C29.8763 61.5507 28.728 62.7005 27.3098 62.7005C25.8917 62.7005 24.7433 61.5521 24.7433 60.134C24.7433 58.7158 25.8917 57.5662 27.3098 57.5662C28.728 57.5662 29.8763 58.7158 29.8763 60.134Z" fill="#D0D0D0"/>
<path d="M27.3068 49.658V74.3869H4.14957C3.69423 74.3869 3.31903 74.0117 3.31903 73.555C3.31903 73.0997 3.69423 72.7244 4.14957 72.7244H6.2447V51.3218C6.2447 50.4098 6.99652 49.6593 7.91789 49.6593H27.3068V49.658Z" fill="#E0E0E0"/>
<path d="M46.6373 76.307H7.97699L9.77834 66.5671H44.8346L46.6373 76.307Z" fill="#447EA1"/>
<path d="M44.836 66.5671H9.77835V76.307H44.836V66.5671Z" fill="#4C8EB5"/>
<path d="M16.4216 70.4945C16.3775 70.3369 16.3548 70.1487 16.3548 69.9284C16.3548 69.4516 16.4416 69.0724 16.6179 68.792C16.7941 68.5102 17.1307 68.3713 17.6274 68.3713C18.267 68.3713 18.6436 68.6785 18.7584 69.2927C18.8078 69.5571 18.8345 69.8896 18.8345 70.2929V70.6828H18.0921V70.2408C18.0921 69.8215 18.0707 69.5398 18.028 69.3942C17.9866 69.25 17.9345 69.1525 17.8717 69.1058C17.809 69.0577 17.7289 69.0337 17.6274 69.0337C17.4405 69.0337 17.3056 69.1031 17.2228 69.2393C17.1413 69.3755 17.0986 69.5798 17.0986 69.8495C17.0986 70.1193 17.136 70.3169 17.2108 70.4411C17.2869 70.5666 17.379 70.6855 17.4885 70.799C17.598 70.9125 17.6594 70.9766 17.6728 70.9926L18.1215 71.468C18.6609 72.0315 18.9293 72.6644 18.9293 73.3628C18.9293 73.9316 18.8425 74.367 18.6663 74.6687C18.49 74.9692 18.1548 75.1201 17.6608 75.1201C17.0652 75.1201 16.6873 74.8584 16.5257 74.3336C16.4336 74.0385 16.3869 73.6525 16.3869 73.1758C16.3869 73.1625 16.3869 73.1505 16.3869 73.1385V72.4988H17.14V73.1692C17.14 73.6512 17.1734 73.9864 17.2441 74.176C17.3149 74.3643 17.4431 74.4578 17.6341 74.4578C17.825 74.4578 17.9545 74.4137 18.0266 74.3242C18.1001 74.2361 18.1415 74.0999 18.1535 73.9183C18.1642 73.7353 18.1709 73.531 18.1709 73.304C18.1709 72.8474 17.9692 72.4174 17.5673 72.0155L17.1373 71.5855C16.7528 71.1889 16.5151 70.8257 16.4216 70.4945Z" fill="white"/>
<path d="M19.7626 68.4534H21.7322V69.097H20.537V71.351H21.6681V71.9947H20.537V74.3982H21.7455V75.0419H19.7612V68.4534H19.7626Z" fill="white"/>
<path d="M22.6495 68.4534H24.0316C24.4242 68.4534 24.7059 68.5348 24.8782 68.6964C25.0504 68.8593 25.1546 69.1357 25.188 69.5243C25.204 69.6845 25.212 69.9342 25.212 70.2721C25.212 70.6113 25.1679 70.8943 25.0785 71.124C24.989 71.355 24.8314 71.5019 24.6071 71.57C24.7713 71.5967 24.8969 71.6848 24.981 71.8304C25.0664 71.976 25.1265 72.2083 25.1613 72.5261C25.196 72.8439 25.2133 73.318 25.2133 73.9456C25.2133 74.5745 25.2333 74.9404 25.2734 75.0445H24.5029C24.4629 74.9644 24.4429 74.2247 24.4429 72.8239C24.4429 72.3512 24.3975 72.0774 24.3053 72.0027C24.2132 71.9252 24.073 71.8878 23.8847 71.8878L23.424 71.8611V75.0445H22.6482L22.6495 68.4534ZM24.4442 70.0678C24.4442 69.5604 24.3988 69.2666 24.308 69.1878C24.2172 69.1077 24.085 69.0676 23.9127 69.0676H23.4267V71.2923H23.9207C24.0703 71.2923 24.1798 71.2642 24.2492 71.2068C24.32 71.1481 24.3694 71.0386 24.3988 70.877C24.4281 70.7141 24.4442 70.459 24.4442 70.1132V70.0678Z" fill="white"/>
<path d="M28.147 68.4534H28.8774L27.8773 75.0445H26.9746L25.8783 68.4534H26.6167L27.0547 71.2429L27.4286 73.6959H27.4433L27.7691 71.2429L28.147 68.4534Z" fill="white"/>
<path d="M29.7014 68.4534H30.4759V75.0445H29.7014V68.4534Z" fill="white"/>
<path d="M31.5401 70.3556C31.5401 69.8562 31.5815 69.489 31.6643 69.254C31.7471 69.0203 31.8366 68.8467 31.934 68.7372C32.145 68.4969 32.4548 68.3754 32.8621 68.374C33.4309 68.3754 33.7982 68.6277 33.9624 69.1271C34.0572 69.4142 34.1053 69.7961 34.1053 70.2715V71.0019H33.3455V70.2689C33.3455 69.8469 33.3214 69.5611 33.276 69.4115C33.2306 69.2647 33.1746 69.1645 33.1091 69.1165C33.045 69.0671 32.9622 69.043 32.8621 69.043C32.6551 69.043 32.5109 69.1405 32.4334 69.3368C32.3546 69.5331 32.3146 69.8415 32.3146 70.2635V73.1171C32.3146 73.6165 32.3507 73.9664 32.4215 74.164C32.4936 74.3616 32.6297 74.4618 32.8341 74.4618C33.037 74.4618 33.1746 74.3629 33.2427 74.1613C33.3121 73.9623 33.3455 73.6125 33.3455 73.1131V72.3827H34.1133V73.1051C34.1133 73.7968 34.0185 74.3056 33.8302 74.6314C33.6419 74.9572 33.3121 75.1201 32.8434 75.1201C32.3747 75.1201 32.0395 74.9518 31.8405 74.6153C31.6416 74.2801 31.5401 73.7727 31.5401 73.0971V70.3556Z" fill="white"/>
<path d="M35.0533 68.4534H37.023V69.097H35.8279V71.351H36.9602V71.9947H35.8279V74.3982H37.0376V75.0419H35.0533V68.4534Z" fill="white"/>
</svg>
