<svg width="190" height="31" viewBox="0 0 190 31" fill="none" xmlns="http://www.w3.org/2000/svg">
<path d="M29.848 9.536H23.32V30.848H14.264V28.704L15.64 24.96V9.536H14.584V24.64L12.344 30.656H4.6V29.28H0.248V13.984L2.424 10.4H6.072V25.216L7.032 22.688V9.536H0.248V2.048H9.752V0.575998H20.344V2.048H29.848V9.536ZM29.816 13.984L29.944 29.28H24.248V10.4H27.64L29.816 13.984ZM60.568 16.704H55.256V17.44H61.752V22.656H58.552L61.688 24.672V30.272H57.72L55.256 27.168V30.528H47.832V27.52L45.72 30.272H41.784V24.672L44.824 22.656H41.816V17.44H47.832V16.704H41.848V11.776H42.904L42.136 10.784V8.128H45.464V11.776H46.136V7.424H41.88V3.072L44.152 0.831999H48.056V2.336H51.096V13.696L49.016 16.064H54.36V15.392H51.736V2.336H54.36V0.863998H60.568V2.336H61.656V8.32H60.568V9.664H61.816V15.392H60.568V16.704ZM31.8 8.32L36.376 1.12H41.112V30.528H33.432V19.296H31.8V8.32ZM55.16 7.968V10.016H56.024V7.968H55.16ZM83.896 20.832V9.856H64.216V4.8L67.48 0.639999H75.864V1.856H93.208V18.4L90.68 20.832H83.896ZM84.984 21.76H93.944V30.624H64.984V10.816H82.872V22.08H74.584V23.072H83.704L84.984 21.76ZM75.544 16.064H73.304V17.6H75.544V16.064ZM110.68 21.376V23.2H104.632V7.84H106.424V6.752H113.144L114.168 7.84H114.424L116.152 6.08H104.888V1.024H124.856V5.792L123.064 7.84H125.336V23.2H118.84V21.376H117.432V22.944H112.056V21.376H110.68ZM103.832 1.6V7.968H96.44V1.6H103.832ZM103.832 24H125.72V30.592H103.48L101.912 29.184L100.408 30.592H96.408V8.864H103.832V24ZM112.056 13.44V12.416H110.68V13.44H112.056ZM118.84 13.44V12.416H117.432V13.44H118.84ZM110.68 18.048H112.056V17.024H110.68V18.048ZM117.432 18.048H118.84V17.024H117.432V18.048ZM157.784 21.504V26.048H156.056V30.56H143V28.8L145.176 26.944V26.048H128.28V21.504H145.176V20.768H128.376V16.672H137.624V15.84H128.568V6.976H137.624V6.176H128.344V1.696H137.624V0.671999H147.64V1.696H157.624V6.176H147.64V6.976H157.4V15.84H155.96L157.464 17.28V20.768H156.056V21.504H157.784ZM138.84 9.568H136.216V10.272H138.84V9.568ZM149.048 10.272V9.568H146.424V10.272H149.048ZM136.216 12.48V13.184H138.84V12.48H136.216ZM146.424 13.184H149.048V12.48H146.424V13.184ZM147.224 15.84V16.672H149.208V15.84H147.224ZM129.528 28.672V26.784H142.296V30.08H131.16L129.528 28.672ZM188.504 11.872V13.76H180.024L181.528 15.04V16.48L184.664 14.592H189.272V20.128L186.712 21.824L189.656 23.808V30.016H184.664L181.496 27.648V30.784H169.976V29.408L171.736 28.352V27.488L166.84 30.496H160.44V28.576L171.736 22.592V21.696L162.072 26.752H160.44V22.368L171.736 16.928V16.128L161.944 20.8H160.44V16.224L165.944 13.76H161.912V11.936H160.344V1.92H169.592V0.575998H180.312V1.92H189.688V11.872H188.504ZM181.56 7.936H168.472V8.832H181.56V7.936Z" fill="#555862"/>
</svg>
